<?xml version="1.0" encoding="UTF-8"?>
<!DOCTYPE svg PUBLIC "-//W3C//DTD SVG 1.0//EN" "http://www.w3.org/TR/2001/REC-SVG-20010904/DTD/svg10.dtd">
<!-- Creator: CorelDRAW 2021 (64-Bit) -->
<svg xmlns="http://www.w3.org/2000/svg" xml:space="preserve" width="73px" height="73px" version="1.0" style="shape-rendering:geometricPrecision; text-rendering:geometricPrecision; image-rendering:optimizeQuality; fill-rule:evenodd; clip-rule:evenodd"
viewBox="0 0 31.91 31.91"
 xmlns:xlink="http://www.w3.org/1999/xlink"
 xmlns:xodm="http://www.corel.com/coreldraw/odm/2003">
 <defs>
  <style type="text/css">
   <![CDATA[
    .fil0 {fill:#FEFEFE;fill-rule:nonzero}
   ]]>
  </style>
 </defs>
 <g id="Capa_x0020_1">
  <metadata id="CorelCorpID_0Corel-Layer"/>
  <path class="fil0" d="M8.28 27.16l0.48 0.3c2.17,1.35 4.66,2.07 7.19,2.07 7.49,0 13.58,-6.09 13.58,-13.58 0,-7.48 -6.09,-13.58 -13.58,-13.58 -7.48,0 -13.58,6.1 -13.58,13.58 0,3.05 1,5.94 2.89,8.35l0.33 0.43 -0.7 3.59 3.39 -1.16zm7.67 4.75c-2.79,0 -5.53,-0.74 -7.95,-2.15l-6.22 2.15 1.28 -6.59c-2,-2.74 -3.06,-5.97 -3.06,-9.37 0,-8.79 7.16,-15.95 15.95,-15.95 8.8,0 15.96,7.16 15.96,15.95 0,8.8 -7.16,15.96 -15.96,15.96z"/>
  <path class="fil0" d="M7.9 9.82c0,0 0.94,-1.63 1.7,-1.73 0.76,-0.09 1.74,-0.09 2.01,0.41 0.26,0.5 1.45,3.4 1.45,3.4 0,0 0.2,0.5 -0.11,0.98 -0.31,0.48 -1.01,1.18 -1.01,1.18 0,0 -0.39,0.5 0,1.03 0.39,0.53 0.99,1.51 2.24,2.75 1.25,1.25 3.65,2.14 3.65,2.14 0,0 0.34,0.05 0.56,-0.17 0.22,-0.21 1.4,-1.7 1.4,-1.7 0,0 0.38,-0.49 1.01,-0.2 0.63,0.29 3.37,1.65 3.37,1.65 0,0 0.32,0.12 0.32,0.6 0,0.49 -0.2,1.67 -0.6,2.07 -0.4,0.4 -1.56,1.63 -3.32,1.63 -1.76,0 -5.94,-1.43 -8.17,-3.66 -2.23,-2.23 -4.2,-4.49 -4.67,-6.54 -0.47,-2.06 -0.41,-2.99 0.17,-3.84z"/>
 </g>
</svg>
