<?xml version="1.0" encoding="UTF-8"?>
<!DOCTYPE svg PUBLIC "-//W3C//DTD SVG 1.0//EN" "http://www.w3.org/TR/2001/REC-SVG-20010904/DTD/svg10.dtd">
<!-- Creator: CorelDRAW 2021 (64-Bit) -->
<svg xmlns="http://www.w3.org/2000/svg" xml:space="preserve" width="1951px" height="923px" version="1.0" style="shape-rendering:geometricPrecision; text-rendering:geometricPrecision; image-rendering:optimizeQuality; fill-rule:evenodd; clip-rule:evenodd"
viewBox="0 0 1942.64 918.72"
 xmlns:xlink="http://www.w3.org/1999/xlink"
 xmlns:xodm="http://www.corel.com/coreldraw/odm/2003">
 <defs>
  <style type="text/css">
   <![CDATA[
    .fil0 {fill:white;fill-rule:nonzero}
   ]]>
  </style>
 </defs>
 <g id="Capa_x0020_1">
  <metadata id="CorelCorpID_0Corel-Layer"/>
  <polygon class="fil0" points="82.19,780.44 92.34,799 110.9,809.14 92.34,819.29 82.19,837.85 72.05,819.29 53.49,809.14 72.05,799 "/>
  <polygon class="fil0" points="9.71,787.42 13.15,793.7 19.43,797.13 13.15,800.57 9.71,806.84 6.28,800.57 0,797.13 6.28,793.7 "/>
  <polygon class="fil0" points="612.84,883.21 615.29,887.67 619.75,890.11 615.29,892.56 612.84,897.02 610.4,892.56 605.94,890.11 610.4,887.67 "/>
  <polygon class="fil0" points="814.91,836.03 820.54,846.31 830.83,851.94 820.54,857.57 814.91,867.85 809.29,857.57 799,851.94 809.29,846.31 "/>
  <polygon class="fil0" points="69.44,33.99 75.08,44.3 85.39,49.94 75.08,55.58 69.44,65.89 63.8,55.58 53.49,49.94 63.8,44.3 "/>
  <polygon class="fil0" points="480.74,6.01 485.69,15.06 494.73,20 485.69,24.95 480.74,33.99 475.8,24.95 466.75,20 475.8,15.06 "/>
  <path class="fil0" d="M557.24 604.56c0.29,1.38 -0.6,2.73 -1.99,3.01 -1.38,0.27 -2.72,-0.62 -3.01,-2 -0.27,-1.38 0.62,-2.73 2.01,-3.01 1.38,-0.27 2.72,0.62 2.99,2z"/>
  <path class="fil0" d="M548.31 643.17c0.71,3.49 -1.56,6.89 -5.04,7.59 -3.49,0.7 -6.89,-1.56 -7.59,-5.05 -0.7,-3.49 1.55,-6.88 5.05,-7.59 3.47,-0.7 6.88,1.56 7.58,5.05z"/>
  <path class="fil0" d="M1181.26 36.66c0.01,-1.32 1.08,-2.39 2.41,-2.38 1.32,0 2.39,1.08 2.38,2.41 0,1.32 -1.09,2.39 -2.4,2.38 -1.32,-0.01 -2.39,-1.08 -2.39,-2.41z"/>
  <path class="fil0" d="M1109.91 692.62c0,-1.87 1.52,-3.38 3.4,-3.37 1.87,0.01 3.38,1.53 3.38,3.4 -0.02,1.88 -1.54,3.38 -3.41,3.38 -1.88,-0.01 -3.38,-1.54 -3.37,-3.41z"/>
  <path class="fil0" d="M1760.55 890.1c0.02,-1.87 1.54,-3.38 3.41,-3.37 1.88,0.01 3.38,1.53 3.37,3.4 0,1.87 -1.52,3.38 -3.41,3.37 -1.86,-0.01 -3.37,-1.53 -3.37,-3.4z"/>
  <path class="fil0" d="M1199.87 13.35c0.01,-1.87 1.53,-3.38 3.4,-3.37 1.88,0.01 3.39,1.53 3.37,3.4 0,1.87 -1.52,3.38 -3.4,3.37 -1.87,-0.01 -3.37,-1.53 -3.37,-3.4z"/>
  <path class="fil0" d="M1113.46 655.38c0.02,-1.87 1.54,-3.38 3.41,-3.37 1.86,0.01 3.38,1.53 3.37,3.4 0,1.87 -1.54,3.38 -3.4,3.37 -1.87,-0.01 -3.39,-1.53 -3.38,-3.4z"/>
  <path class="fil0" d="M1106.4 671.07c0,-1.32 1.09,-2.39 2.41,-2.38 1.31,0 2.38,1.08 2.38,2.4 0,1.33 -1.08,2.39 -2.41,2.39 -1.32,-0.01 -2.39,-1.08 -2.38,-2.41z"/>
  <path class="fil0" d="M1755.81 880.4c0,-1.33 1.08,-2.39 2.41,-2.39 1.32,0.01 2.39,1.09 2.38,2.41 0,1.32 -1.09,2.39 -2.41,2.39 -1.31,-0.01 -2.38,-1.09 -2.38,-2.41z"/>
  <path class="fil0" d="M1204.31 2.39c0,-1.33 1.08,-2.39 2.41,-2.39 1.31,0.01 2.38,1.09 2.38,2.41 -0.02,1.32 -1.09,2.39 -2.41,2.38 -1.33,-0.01 -2.39,-1.08 -2.38,-2.4z"/>
  <path class="fil0" d="M1759.24 871.97c0,-1.32 1.09,-2.39 2.4,-2.38 1.32,0 2.39,1.08 2.39,2.4 -0.01,1.32 -1.08,2.39 -2.41,2.39 -1.32,-0.01 -2.39,-1.09 -2.38,-2.41z"/>
  <path class="fil0" d="M1086.79 668.32c0.01,-3.34 2.74,-6.04 6.08,-6.02 3.34,0.01 6.04,2.73 6.02,6.08 -0.01,3.34 -2.74,6.03 -6.08,6.02 -3.34,-0.02 -6.04,-2.74 -6.02,-6.08z"/>
  <path class="fil0" d="M1217.84 33.93c0.02,-3.35 2.74,-6.04 6.09,-6.02 3.34,0.01 6.03,2.73 6.02,6.07 -0.02,3.34 -2.74,6.04 -6.08,6.02 -3.35,-0.01 -6.04,-2.73 -6.03,-6.07z"/>
  <path class="fil0" d="M1935.15 257.06c0.01,-2.06 1.7,-3.73 3.76,-3.72 2.06,0.01 3.73,1.69 3.73,3.76 -0.01,2.07 -1.7,3.74 -3.76,3.73 -2.08,-0.01 -3.73,-1.7 -3.73,-3.77z"/>
  <path class="fil0" d="M1867.78 278.55c0.01,-2.07 1.7,-3.74 3.76,-3.73 2.08,0.01 3.74,1.7 3.74,3.76 -0.02,2.07 -1.71,3.74 -3.77,3.73 -2.06,-0.01 -3.73,-1.69 -3.73,-3.76z"/>
  <path class="fil0" d="M1872.69 266.43c0,-1.46 1.18,-2.64 2.65,-2.64 1.46,0.01 2.64,1.2 2.63,2.66 0,1.47 -1.19,2.65 -2.65,2.64 -1.46,-0.01 -2.65,-1.2 -2.63,-2.66z"/>
  <path class="fil0" d="M1887.65 301.3c0.02,-3.7 3.03,-6.68 6.71,-6.66 3.71,0.02 6.69,3.03 6.66,6.72 -0.02,3.69 -3.01,6.67 -6.72,6.65 -3.68,-0.01 -6.67,-3.02 -6.65,-6.71z"/>
  <polygon class="fil0" points="1921.16,696.03 1926.1,705.07 1935.15,710.01 1926.1,714.96 1921.16,724.01 1916.21,714.96 1907.17,710.01 1916.21,705.07 "/>
  <polygon class="fil0" points="1780.69,117.63 1770.54,136.19 1751.99,146.33 1770.54,156.48 1780.69,175.04 1790.84,156.48 1809.39,146.33 1790.84,136.19 "/>
  <polygon class="fil0" points="1853.17,124.61 1849.74,130.89 1843.46,134.32 1849.74,137.76 1853.17,144.03 1856.61,137.76 1862.88,134.32 1856.61,130.89 "/>
  <polygon class="fil0" points="774.77,895.9 777.22,900.37 781.68,902.81 777.22,905.25 774.77,909.72 772.33,905.25 767.87,902.81 772.33,900.37 "/>
  <polygon class="fil0" points="1456.1,886.9 1461.73,897.18 1472.02,902.81 1461.73,908.44 1456.1,918.72 1450.48,908.44 1440.19,902.81 1450.48,897.18 "/>
 </g>
</svg>
