<?xml version="1.0" encoding="UTF-8"?>
<!DOCTYPE svg PUBLIC "-//W3C//DTD SVG 1.0//EN" "http://www.w3.org/TR/2001/REC-SVG-20010904/DTD/svg10.dtd">
<!-- Creator: CorelDRAW 2021 (64-Bit) -->
<svg xmlns="http://www.w3.org/2000/svg" xml:space="preserve" width="474px" height="551px" version="1.0" style="shape-rendering:geometricPrecision; text-rendering:geometricPrecision; image-rendering:optimizeQuality; fill-rule:evenodd; clip-rule:evenodd"
viewBox="0 0 480.54 557.53"
 xmlns:xlink="http://www.w3.org/1999/xlink"
 xmlns:xodm="http://www.corel.com/coreldraw/odm/2003">
 <defs>
  <style type="text/css">
   <![CDATA[
    .str1 {stroke:#845CFF;stroke-width:2.03;stroke-linecap:round;stroke-linejoin:round;stroke-miterlimit:22.9256}
    .str0 {stroke:#F7D2F3;stroke-width:0.91;stroke-linecap:round;stroke-linejoin:round;stroke-miterlimit:22.9256}
    .fil7 {fill:#FEFEFE}
    .fil1 {fill:#FEFEFE;fill-rule:nonzero}
    .fil16 {fill:#F9B39B;fill-rule:nonzero}
    .fil22 {fill:#F69775;fill-rule:nonzero}
    .fil13 {fill:#F1626C;fill-rule:nonzero}
    .fil15 {fill:#EFEFEF;fill-rule:nonzero}
    .fil0 {fill:#E5E6E5;fill-rule:nonzero}
    .fil14 {fill:#D9DAD9;fill-rule:nonzero}
    .fil21 {fill:#A17364;fill-rule:nonzero}
    .fil20 {fill:#919697;fill-rule:nonzero}
    .fil19 {fill:#646869;fill-rule:nonzero}
    .fil12 {fill:#42616A;fill-rule:nonzero}
    .fil11 {fill:#2C3C43;fill-rule:nonzero}
    .fil17 {fill:#845CFF;fill-rule:nonzero}
    .fil18 {fill:#845CFF;fill-rule:nonzero}
    .fil8 {fill:#A39CFF;fill-rule:nonzero}
    .fil4 {fill:#A39CFF;fill-rule:nonzero}
    .fil26 {fill:#B2F5FC;fill-rule:nonzero}
    .fil6 {fill:#B3F4FD;fill-rule:nonzero}
    .fil24 {fill:#CAFDF1;fill-rule:nonzero}
    .fil5 {fill:#CCFDF1;fill-rule:nonzero}
    .fil9 {fill:#E6C9FE;fill-rule:nonzero}
    .fil10 {fill:#F7D2F3;fill-rule:nonzero}
    .fil2 {fill:#F7D2F3;fill-rule:nonzero}
    .fil25 {fill:#FBD3CD;fill-rule:nonzero}
    .fil23 {fill:#FBEEC2;fill-rule:nonzero}
    .fil3 {fill:white;fill-rule:nonzero}
   ]]>
  </style>
 </defs>
 <g id="Capa_x0020_1">
  <metadata id="CorelCorpID_0Corel-Layer"/>
  <path class="fil0" d="M100.08 116.15l0 0c-21.44,0 -38.82,-17.38 -38.82,-38.83 0,-21.44 17.38,-38.82 38.82,-38.82 21.44,0 38.83,17.38 38.83,38.82 0,21.45 -17.39,38.83 -38.83,38.83z"/>
  <polygon class="fil1" points="82.48,94.63 90.51,94.63 90.51,68.67 82.48,68.67 "/>
  <path class="fil1" d="M86.46 65.27c2.62,0 4.75,-2.15 4.75,-4.79 0,-2.65 -2.13,-4.79 -4.75,-4.79 -2.63,0 -4.76,2.14 -4.76,4.79 0,2.64 2.13,4.79 4.76,4.79z"/>
  <path class="fil1" d="M103.36 81c0,-3.65 1.68,-5.82 4.89,-5.82 2.96,0 4.38,2.08 4.38,5.82 0,3.74 0,13.63 0,13.63l7.99 0c0,0 0,-9.48 0,-16.44 0,-6.95 -3.94,-10.31 -9.44,-10.31 -5.51,0 -7.82,4.28 -7.82,4.28l0 -3.49 -7.71 0 0 25.96 7.71 0c0,0 0,-9.63 0,-13.63z"/>
  <polygon class="fil2" points="152.12,0 157.43,9.72 167.16,15.04 157.43,20.35 152.12,30.08 146.8,20.35 137.08,15.04 146.8,9.72 "/>
  <polygon class="fil3" points="373.85,263.37 377.84,270.66 385.13,274.65 377.84,278.64 373.85,285.93 369.87,278.64 362.57,274.65 369.87,270.66 "/>
  <polygon class="fil3" points="385.13,227.37 386.93,230.66 390.22,232.46 386.93,234.26 385.13,237.55 383.33,234.26 380.04,232.46 383.33,230.66 "/>
  <polygon class="fil4" points="114.14,3.66 115.94,6.95 119.23,8.74 115.94,10.55 114.14,13.83 112.34,10.55 109.05,8.74 112.34,6.95 "/>
  <path class="fil3" d="M23.95 309.25c4.06,-1.76 6.9,-6 6.86,-10.96 -0.05,-6.49 -5.03,-11.72 -11.12,-11.66 -6.09,0.05 -10.98,5.35 -10.92,11.84 0.04,5.01 3.02,9.22 7.16,10.89 -16.93,2.77 -15.92,21.2 -15.92,21.2l40.12 -0.34c0,0 0.67,-18.64 -16.18,-20.97z"/>
  <path class="fil5" d="M408.72 430.72c-0.57,-2.88 -3.41,-5.14 -6.35,-5.03 -2.92,0.1 -5.57,2.52 -5.96,5.4 -0.43,-2.88 -3.1,-5.27 -6.01,-5.35 -2.94,-0.08 -5.77,2.2 -6.31,5.09 -0.4,2.11 0.33,4.3 1.51,6.08 1.19,1.79 2.8,3.23 4.41,4.66 2.24,1.99 4.31,3.87 6.55,5.86 2.22,-2.01 4.12,-3.9 6.34,-5.92 1.59,-1.44 3.19,-2.9 4.36,-4.69 1.17,-1.8 1.87,-3.99 1.46,-6.1z"/>
  <path class="fil3" d="M434.85 191.83l4.29 -0.85 6.79 -14.93 -1.7 -8.58c0,0 6.56,-1.73 8.01,9.66 1.45,11.39 1.72,8.36 1.72,8.36 0,0 14.12,-2.74 15.54,-1.75 1.03,0.72 4.19,14.66 5.85,22.23 0.83,3.81 -0.81,7.83 -4.19,9.45 -0.48,0.22 -0.98,0.4 -1.48,0.5 -3.52,0.7 -22.06,1.4 -22.06,1.4l-7.43 1.47 -5.34 -26.96z"/>
  <polygon class="fil3" points="422.07,191.92 430.55,220.79 437.91,219.33 432.2,190.52 "/>
  <path class="fil6" d="M437.48 310.38c-16.38,-6.26 -24.59,-24.61 -18.33,-41 6.26,-16.38 24.62,-24.59 41,-18.33 12.1,4.62 19.73,15.83 20.39,27.97l0 3.39c-0.18,3.22 -0.84,6.47 -2.06,9.64 -6.26,16.39 -24.61,24.6 -41,18.33z"/>
  <path class="fil7" d="M444.18 293.74c-2.73,-1.04 -4.96,-2.82 -6.55,-5.03l-5.79 -0.33 3.57 -4.31c-0.77,-2.81 -0.69,-5.87 0.43,-8.79 0.16,-0.44 0.35,-0.86 0.56,-1.27 3.24,-6.5 11,-9.59 17.97,-6.93 7.05,2.7 10.77,10.33 8.69,17.41 -0.1,0.35 -0.22,0.7 -0.35,1.05 -2.81,7.36 -11.13,11.03 -18.53,8.2zm21.22 -7.63c3.05,-8.66 -1.38,-18.23 -10.07,-21.55 -8.59,-3.29 -18.16,0.76 -21.75,9.06 -0.1,0.23 -0.2,0.46 -0.28,0.69 -1.15,3 -1.38,6.11 -0.85,9.06l-6.13 7.41 9.93 0.56c1.81,2.14 4.17,3.86 6.96,4.93 8.83,3.37 18.69,-0.99 22.04,-9.75 0.05,-0.14 0.1,-0.27 0.15,-0.41z"/>
  <path class="fil7" d="M455.37 286.41c-0.32,-0.34 -1.88,-2.02 -2.19,-2.29 -0.31,-0.27 -0.55,-0.43 -0.96,-0.14 -0.41,0.29 -1.5,0.88 -1.82,1.04 -0.33,0.18 -0.57,0.12 -0.89,-0.22 -0.32,-0.35 -1.43,-1.23 -2.41,-3.14 -0.77,-1.47 -1.08,-3.04 -1.15,-3.51 -0.08,-0.48 0.2,-0.61 0.47,-0.73 0.25,-0.11 0.56,-0.31 0.85,-0.45l0.22 -0.14c0.14,-0.11 0.26,-0.22 0.42,-0.37 0.23,-0.21 0.25,-0.46 0.23,-0.69 -0.02,-0.23 -0.08,-2.45 -0.11,-3.35 -0.02,-0.9 -0.4,-0.89 -0.64,-0.98 -0.22,-0.09 -0.47,-0.22 -0.73,-0.32 -0.26,-0.1 -0.72,-0.17 -1.23,0.08 -0.51,0.25 -1.88,0.81 -2.61,2.73 -0.17,0.44 -0.26,0.92 -0.3,1.4 -0.13,1.52 0.29,2.97 0.37,3.22 0.09,0.33 1.06,5.35 4.44,8.43 3.39,3.07 3.59,2.56 4.34,2.76 0.74,0.22 2.67,-0.05 3.34,-0.84 0.68,-0.78 0.97,-1.55 0.94,-1.75 -0.04,-0.2 -0.26,-0.4 -0.58,-0.74z"/>
  <path class="fil8" d="M24.52 163.6l0 0c-13.38,0 -24.22,-10.84 -24.22,-24.22 0,-13.37 10.84,-24.21 24.22,-24.21 13.37,0 24.21,10.84 24.21,24.21 0,13.38 -10.84,24.22 -24.21,24.22z"/>
  <path class="fil1" d="M11.61 147.49c2.35,1.5 5.13,2.38 8.12,2.38 9.83,0 15.38,-8.3 15.05,-15.75 1.03,-0.74 1.93,-1.68 2.64,-2.74 -0.95,0.42 -1.97,0.71 -3.04,0.83 1.09,-0.65 1.93,-1.69 2.33,-2.93 -1.03,0.61 -2.16,1.05 -3.37,1.29 -0.96,-1.03 -2.34,-1.67 -3.86,-1.67 -3.42,0 -5.93,3.19 -5.16,6.5 -4.4,-0.22 -8.3,-2.33 -10.91,-5.53 -1.39,2.38 -0.72,5.49 1.64,7.07 -0.87,-0.03 -1.69,-0.27 -2.4,-0.67 -0.06,2.46 1.7,4.75 4.25,5.26 -0.75,0.21 -1.57,0.25 -2.39,0.09 0.67,2.11 2.62,3.64 4.94,3.68 -2.22,1.74 -5.03,2.52 -7.84,2.19z"/>
  <path class="fil9" d="M68.04 434.89l0 0c-22.41,5.34 -44.91,-8.5 -50.24,-30.91 -5.34,-22.41 8.5,-44.9 30.9,-50.24l0.01 0c22.4,-5.34 44.9,8.5 50.24,30.91 5.33,22.41 -8.5,44.9 -30.91,50.24z"/>
  <path class="fil1" d="M53.07 372.07c-6.04,1.44 -6.79,1.64 -9.14,2.32 -2.34,0.67 -3.87,1.43 -5.15,2.32 -1.33,0.92 -2.39,1.97 -3.33,3.5 -0.95,1.53 -1.41,2.96 -1.63,4.56 -0.21,1.54 -0.2,3.25 0.25,5.64 0.46,2.4 0.61,3.16 2.05,9.21 1.44,6.04 1.65,6.79 2.32,9.14 0.67,2.34 1.44,3.87 2.32,5.15 0.92,1.33 1.98,2.39 3.51,3.33 1.53,0.94 2.95,1.41 4.55,1.63 1.55,0.21 3.25,0.2 5.65,-0.26 2.4,-0.45 3.16,-0.61 9.2,-2.05 6.04,-1.44 6.79,-1.64 9.14,-2.32 2.34,-0.67 3.87,-1.43 5.15,-2.32 1.33,-0.91 2.39,-1.97 3.33,-3.5 0.95,-1.53 1.41,-2.95 1.63,-4.55 0.21,-1.55 0.21,-3.26 -0.25,-5.65 -0.46,-2.4 -0.61,-3.16 -2.05,-9.2 -1.44,-6.05 -1.65,-6.8 -2.32,-9.15 -0.67,-2.34 -1.43,-3.86 -2.32,-5.15 -0.92,-1.33 -1.97,-2.39 -3.51,-3.33 -1.53,-0.94 -2.95,-1.41 -4.55,-1.62 -1.54,-0.22 -3.25,-0.21 -5.64,0.25 -2.4,0.45 -3.17,0.61 -9.21,2.05zm0.96 4.01c5.94,-1.42 6.64,-1.56 9.02,-2.02 2.19,-0.41 3.45,-0.33 4.31,-0.21 1.13,0.15 1.99,0.46 2.95,1.05 0.97,0.59 1.63,1.22 2.28,2.16 0.49,0.71 1.13,1.81 1.75,3.95 0.66,2.32 0.85,3.02 2.27,8.96 1.41,5.94 1.56,6.65 2.01,9.02 0.42,2.19 0.34,3.46 0.22,4.31 -0.16,1.14 -0.46,1.99 -1.06,2.96 -0.59,0.96 -1.21,1.62 -2.16,2.27 -0.71,0.49 -1.8,1.14 -3.95,1.75 -2.31,0.67 -3.01,0.86 -8.95,2.27 -5.94,1.42 -6.65,1.56 -9.02,2.02 -2.2,0.41 -3.46,0.33 -4.32,0.21 -1.13,-0.15 -1.99,-0.46 -2.95,-1.05 -0.97,-0.59 -1.63,-1.22 -2.28,-2.16 -0.49,-0.71 -1.13,-1.8 -1.75,-3.95 -0.66,-2.32 -0.85,-3.02 -2.27,-8.96 -1.41,-5.94 -1.56,-6.65 -2.01,-9.02 -0.42,-2.19 -0.34,-3.46 -0.22,-4.31 0.16,-1.14 0.46,-2 1.06,-2.96 0.59,-0.96 1.22,-1.62 2.16,-2.27 0.71,-0.49 1.8,-1.14 3.95,-1.75 2.32,-0.67 3.02,-0.86 8.96,-2.27z"/>
  <path class="fil1" d="M60.14 401.73c-4.1,0.98 -8.21,-1.55 -9.18,-5.65 -0.98,-4.09 1.55,-8.2 5.64,-9.18 4.1,-0.98 8.21,1.55 9.19,5.65 0.97,4.09 -1.56,8.2 -5.65,9.18zm-4.49 -18.84c-6.31,1.5 -10.21,7.84 -8.7,14.15 1.5,6.31 7.83,10.2 14.14,8.7 6.31,-1.5 10.21,-7.84 8.71,-14.15 -1.51,-6.31 -7.84,-10.2 -14.15,-8.7z"/>
  <path class="fil1" d="M70.09 378.97c0.35,1.48 -0.56,2.96 -2.04,3.31 -1.47,0.35 -2.95,-0.56 -3.3,-2.03 -0.35,-1.48 0.56,-2.96 2.03,-3.31 1.48,-0.35 2.96,0.56 3.31,2.03z"/>
  <path class="fil10 str0" d="M383.98 398.18l0 0c-10.74,0 -19.45,-8.71 -19.45,-19.45 0,-10.75 8.71,-19.45 19.45,-19.45 10.74,0 19.45,8.7 19.45,19.45 0,10.74 -8.71,19.45 -19.45,19.45z"/>
  <path class="fil1" d="M381.02 390.49l4.73 0 0 -11.86 3.31 0 0.35 -3.97 -3.66 0c0,0 0,-1.48 0,-2.26 0,-0.94 0.19,-1.31 1.09,-1.31 0.73,0 2.57,0 2.57,0l0 -4.12c0,0 -2.7,0 -3.28,0 -3.52,0 -5.11,1.55 -5.11,4.52 0,2.59 0,3.17 0,3.17l-2.47 0 0 4.02 2.47 0 0 11.81z"/>
  <path class="fil11" d="M317.64 505.65l-156.27 -0.1c-18.8,0 -34.03,-15.25 -34.02,-34.04l0.07 -391.78c0.01,-18.8 15.26,-34.04 34.06,-34.03l156.28 0.09c18.79,0.01 34.02,15.25 34.02,34.05l-0.08 391.77c0,18.81 -15.25,34.05 -34.06,34.04z"/>
  <path class="fil1" d="M317.59 59.65l-30.3 -0.02c-4.06,0 -7.36,3.44 -7.36,7.69l0 5.49c0,4.25 -3.29,7.69 -7.36,7.69l-59.05 -0.04c-4.07,0 -7.36,-3.44 -7.36,-7.69l0 -5.5c0,-4.24 -3.29,-7.69 -7.35,-7.69l-10.66 -0.01 -26.52 -0.02c-13.17,0 -23.85,10.67 -23.85,23.84l-0.08 382.4c0,13.17 10.67,23.84 23.83,23.85l155.96 0.09c13.17,0.01 23.85,-10.67 23.85,-23.84l0.08 -382.4c0,-13.16 -10.67,-23.84 -23.83,-23.84z"/>
  <path class="fil11" d="M319.87 90.71c0,0.1 -3.94,0.22 -8.8,0.26 -4.86,0.04 -8.8,-0.01 -8.8,-0.11 0,-0.1 3.94,-0.22 8.8,-0.26 4.86,-0.04 8.8,0.01 8.8,0.11z"/>
  <path class="fil11" d="M319.91 95.22c0,0.1 -3.94,0.21 -8.8,0.25 -4.86,0.04 -8.8,-0.01 -8.8,-0.11 0,-0.1 3.94,-0.22 8.8,-0.26 4.86,-0.04 8.8,0.01 8.8,0.12z"/>
  <path class="fil11" d="M319.95 99.72c0,0.1 -3.94,0.22 -8.8,0.26 -4.86,0.04 -8.8,-0.01 -8.8,-0.11 -0.01,-0.11 3.93,-0.22 8.79,-0.26 4.87,-0.04 8.81,0.01 8.81,0.11z"/>
  <path class="fil11" d="M154.16 104.11c0,-0.01 0.16,-0.02 0.46,-0.03 0.36,-0.01 0.78,-0.02 1.28,-0.04 1.21,-0.03 2.79,-0.07 4.74,-0.11l-0.13 0.13c-0.02,-1.05 -0.04,-2.2 -0.06,-3.43 0.01,-0.64 -0.05,-1.24 0.01,-1.98 0.13,-0.74 0.78,-1.39 1.59,-1.46 0.76,-0.02 1.43,-0.05 2.26,-0.01 0.85,0.1 1.58,0.92 1.55,1.83 0.02,1.6 0.04,3.27 0.06,5.01l-0.22 -0.22c1.92,-0.02 3.92,-0.04 5.97,-0.06l-0.22 0.23c-0.02,-2.41 -0.05,-4.9 -0.07,-7.45 0,-0.63 -0.01,-1.26 -0.02,-1.89 0,-0.59 -0.35,-0.98 -0.83,-1.41 -0.89,-0.88 -1.76,-1.73 -2.62,-2.58 -0.85,-0.84 -1.69,-1.67 -2.52,-2.49 -0.41,-0.4 -0.82,-0.8 -1.22,-1.2 -0.42,-0.41 -0.75,-0.82 -1.23,-0.92 -0.47,-0.13 -0.99,-0.03 -1.38,0.26 -0.36,0.31 -0.74,0.74 -1.11,1.09 -0.73,0.74 -1.45,1.47 -2.14,2.16 -1.35,1.41 -2.75,2.69 -3.78,3.9 -0.43,0.66 -0.27,1.48 -0.3,2.23 0,0.74 0,1.44 0,2.1 -0.01,1.29 -0.02,2.42 -0.02,3.39 -0.01,0.87 -0.02,1.59 -0.03,2.17 0,0.5 -0.01,0.77 -0.02,0.78 -0.02,0.01 -0.03,-0.23 -0.04,-0.72 -0.02,-0.57 -0.04,-1.28 -0.07,-2.13 -0.02,-0.98 -0.04,-2.12 -0.07,-3.42 -0.01,-0.68 -0.03,-1.39 -0.04,-2.15 -0.01,-0.38 -0.01,-0.77 -0.02,-1.17 0,-0.43 0.11,-0.86 0.33,-1.25 1.1,-1.36 2.42,-2.56 3.78,-4 0.69,-0.7 1.4,-1.43 2.13,-2.18 0.38,-0.37 0.7,-0.75 1.15,-1.14 0.48,-0.37 1.14,-0.5 1.74,-0.34 0.63,0.14 1.04,0.66 1.43,1.03 0.41,0.39 0.81,0.79 1.23,1.2 0.82,0.81 1.67,1.63 2.52,2.47 0.86,0.85 1.74,1.7 2.62,2.57 0.21,0.23 0.46,0.41 0.67,0.73 0.19,0.29 0.3,0.65 0.31,1.01 0.01,0.63 0.01,1.26 0.02,1.9 0.02,2.55 0.04,5.04 0.06,7.45l0 0.22 -0.23 0.01c-2.06,0.01 -4.06,0.02 -5.98,0.04l-0.22 0 0 -0.22c-0.01,-1.74 -0.01,-3.41 -0.02,-5.01 0.02,-0.72 -0.54,-1.36 -1.21,-1.45 -0.69,-0.04 -1.5,-0.01 -2.17,-0.01 -0.64,0.06 -1.18,0.57 -1.29,1.16 -0.05,0.6 -0.01,1.3 -0.02,1.91 0,1.24 0,2.39 0,3.44l0 0.13 -0.13 0c-1.98,-0.01 -3.59,-0.02 -4.82,-0.03 -0.48,-0.01 -0.9,-0.02 -1.25,-0.02 -0.28,-0.01 -0.42,-0.02 -0.41,-0.03z"/>
  <path class="fil12" d="M257.24 402.92c0,0.04 -0.58,0.08 -1.63,0.12 -1.17,0.02 -2.67,0.05 -4.47,0.09 -3.77,0.05 -8.98,0.09 -14.73,0.09 -5.75,0 -10.96,-0.04 -14.73,-0.09 -1.8,-0.04 -3.3,-0.07 -4.47,-0.09 -1.05,-0.04 -1.64,-0.08 -1.64,-0.12 0,-0.04 0.59,-0.08 1.64,-0.11 1.17,-0.03 2.67,-0.06 4.47,-0.1 3.77,-0.05 8.98,-0.08 14.73,-0.08 5.75,0 10.96,0.03 14.73,0.08 1.8,0.04 3.3,0.07 4.47,0.1 1.05,0.03 1.63,0.07 1.63,0.11z"/>
  <path class="fil12" d="M322.74 413.17c0,0.17 -23.99,0.3 -53.58,0.3 -29.6,0 -53.59,-0.13 -53.59,-0.3 0,-0.16 23.99,-0.29 53.59,-0.29 29.59,0 53.58,0.13 53.58,0.29z"/>
  <path class="fil12" d="M289.25 422.82c0,0.16 -16.49,0.29 -36.84,0.29 -20.35,0 -36.84,-0.13 -36.84,-0.29 0,-0.16 16.49,-0.3 36.84,-0.3 20.35,0 36.84,0.14 36.84,0.3z"/>
  <path class="fil11" d="M321.53 437.84l0.1 0.1 2.94 2.94 0.01 -8.72 -5.91 -0.01 -0.02 8.55 2.88 -2.86zm3.33 3.75l-3.33 -3.34 -3.17 3.16 0.01 -9.56 6.5 0.01 -0.01 9.73z"/>
  <path class="fil11" d="M233.45 433.98c-1.68,0.02 -3.03,1.39 -3.02,3.07 0.02,1.67 1.39,3.03 3.07,3.01 0.43,0 0.91,-0.15 1.46,-0.46l0.05 -0.03 0.87 0.39 -0.2 -0.85 0.04 -0.04c0.52,-0.57 0.8,-1.31 0.79,-2.07 -0.01,-1.68 -1.38,-3.03 -3.06,-3.02zm2.75 6.37l-1.18 -0.53c-0.57,0.31 -1.06,0.46 -1.52,0.47 -1.8,0.01 -3.27,-1.44 -3.29,-3.24 -0.01,-1.8 1.44,-3.28 3.24,-3.29 1.8,-0.01 3.27,1.44 3.29,3.24 0,0.8 -0.28,1.57 -0.82,2.17l0.28 1.18z"/>
  <path class="fil11" d="M240.45 434.47l2.15 1.98 1.15 2.8 1.92 -4.82 -5.22 0.04zm3.3 5.37l-1.35 -3.28 -2.52 -2.31 6.12 -0.04 -2.25 5.63z"/>
  <polygon class="fil11" points="242.66,436.57 242.54,436.38 245.88,434.21 246,434.39 "/>
  <path class="fil13" d="M226.56 434.94c-0.18,-0.87 -1.04,-1.55 -1.94,-1.52 -0.88,0.04 -1.68,0.77 -1.8,1.65 -0.13,-0.88 -0.94,-1.6 -1.83,-1.62 -0.89,-0.02 -1.74,0.67 -1.91,1.55 -0.11,0.64 0.11,1.31 0.47,1.84 0.36,0.55 0.85,0.98 1.34,1.41 0.68,0.61 1.31,1.17 2,1.78 0.67,-0.62 1.24,-1.2 1.91,-1.81 0.48,-0.44 0.97,-0.88 1.32,-1.43 0.35,-0.54 0.57,-1.21 0.44,-1.85z"/>
  <path class="fil11" d="M331.68 450.05c0,0 -0.01,-0.37 -0.02,-1.07 0,-0.71 -0.01,-1.74 -0.02,-3.1 -0.01,-2.73 -0.02,-6.76 -0.05,-11.97 -0.02,-10.41 -0.06,-25.56 -0.1,-44.57l0.19 0.19c-43.6,0.03 -108.69,0.06 -181.23,0.1l-0.02 0 0.3 -0.29c0,21.1 -0.01,41.56 -0.01,60.71l-0.29 -0.29c52.18,0.05 97.45,0.1 129.69,0.14 16.14,0.03 29.01,0.06 37.87,0.07 4.41,0.02 7.83,0.03 10.16,0.04 1.14,0.01 2.02,0.02 2.63,0.02 0.59,0.01 0.9,0.02 0.9,0.02 0,0 -0.28,0.01 -0.87,0.02 -0.59,0 -1.46,0.01 -2.6,0.01 -2.31,0.01 -5.7,0.02 -10.09,0.04 -8.84,0.02 -21.69,0.05 -37.8,0.08 -32.29,0.03 -77.63,0.08 -129.89,0.13l-0.28 0 0 -0.28c-0.01,-19.15 -0.01,-39.61 -0.01,-60.71l0 -0.3 0.31 0c72.54,0.04 137.63,0.08 181.23,0.1l0.2 0 0 0.2c-0.05,19.05 -0.08,34.25 -0.11,44.69 -0.02,5.19 -0.04,9.2 -0.05,11.92 -0.01,1.35 -0.01,2.37 -0.02,3.07 0,0.69 -0.02,1.03 -0.02,1.03z"/>
  <polygon class="fil0" points="208.18,399.76 207.95,439.9 157.74,439.62 157.97,399.48 "/>
  <path class="fil11" d="M208.18 399.76c-0.01,0.01 -0.09,0.01 -0.25,0.02 -0.19,0 -0.42,0.01 -0.72,0.01 -0.65,0 -1.56,0.01 -2.74,0.02 -2.41,0 -5.89,0 -10.29,0.01 -8.83,-0.02 -21.35,-0.05 -36.21,-0.08l0.27 -0.26c-0.06,11.95 -0.13,25.64 -0.2,40.13 0.06,0.08 -0.55,-0.55 -0.29,-0.29l0.1 0 0.11 0 0.22 0.01 0.43 0 0.87 0 1.73 0.01c1.15,0.01 2.3,0.02 3.44,0.02 2.28,0.02 4.53,0.03 6.76,0.04 4.46,0.03 8.81,0.06 13.03,0.09 8.43,0.06 16.33,0.12 23.51,0.17l-0.25 0.24c0.12,-12.05 0.23,-22.05 0.3,-29.07 0.04,-3.49 0.08,-6.24 0.11,-8.15 0.01,-0.92 0.03,-1.64 0.03,-2.16 0.02,-0.49 0.04,-0.76 0.04,-0.76 0,0 0.01,0.24 0.02,0.71 0,0.51 0.01,1.21 0.02,2.11 0,1.9 0.01,4.63 0.01,8.1 -0.01,7.06 -0.02,17.11 -0.04,29.22l0 0.25 -0.24 0c-7.18,-0.03 -15.08,-0.06 -23.52,-0.1 -4.21,-0.02 -8.56,-0.04 -13.02,-0.06 -2.23,-0.02 -4.49,-0.03 -6.77,-0.04 -1.14,-0.01 -2.28,-0.01 -3.43,-0.02l-1.73 -0.01 -0.87 0 -0.44 0 -0.21 -0.01 -0.11 0 -0.06 0 -0.04 0c0.26,0.27 -0.37,-0.36 -0.3,-0.3 0.09,-14.49 0.18,-28.18 0.26,-40.13l0 -0.27 0.26 0.01c14.94,0.14 27.51,0.25 36.38,0.34 4.38,0.05 7.84,0.09 10.24,0.12 1.15,0.02 2.05,0.04 2.68,0.05 0.29,0.01 0.51,0.01 0.69,0.02 0.15,0.01 0.22,0.01 0.22,0.01z"/>
  <polygon class="fil14" points="159.49,437.1 206.17,437.37 206.37,402.28 159.69,402.02 "/>
  <polygon class="fil15" points="159.49,437.1 175.92,415.39 185.94,429.09 192.83,421.83 206.17,437.37 "/>
  <path class="fil15" d="M190.32 412.8c-0.01,2.03 -1.67,3.66 -3.7,3.65 -2.03,-0.01 -3.66,-1.67 -3.65,-3.7 0.01,-2.03 1.66,-3.66 3.69,-3.65 2.03,0.01 3.67,1.67 3.66,3.7z"/>
  <path class="fil11" d="M242.63 139.38c0,0.02 -0.18,0.04 -0.53,0.06 -0.42,0.02 -0.93,0.04 -1.54,0.06 -1.43,0.02 -3.34,0.05 -5.65,0.09 -4.78,0.06 -11.37,0.09 -18.66,0.09 -7.29,0 -13.88,-0.03 -18.66,-0.09 -2.31,-0.04 -4.22,-0.07 -5.65,-0.09 -0.61,-0.02 -1.12,-0.04 -1.54,-0.06 -0.35,-0.02 -0.54,-0.04 -0.54,-0.06 0,-0.02 0.19,-0.04 0.54,-0.05 0.42,-0.02 0.93,-0.04 1.54,-0.06 1.43,-0.02 3.34,-0.06 5.65,-0.09 4.78,-0.06 11.37,-0.09 18.66,-0.09 7.29,0 13.88,0.03 18.66,0.09 2.31,0.03 4.22,0.07 5.65,0.09 0.61,0.02 1.12,0.04 1.54,0.06 0.35,0.01 0.53,0.03 0.53,0.05z"/>
  <path class="fil11" d="M311.86 355.69l0.15 0.15 4.36 4.37 0.02 -12.96 -8.79 -0.01 -0.02 12.71 4.28 -4.26zm4.94 5.58l-4.94 -4.96 -4.72 4.69 0.03 -14.2 9.65 0.01 -0.02 14.46z"/>
  <path class="fil11" d="M185.76 347.25c-3.3,0.02 -5.96,2.73 -5.94,6.03 0.03,3.3 2.73,5.96 6.03,5.93 0.85,0 1.79,-0.3 2.89,-0.9l0.09 -0.06 1.71 0.76 -0.39 -1.67 0.08 -0.09c1.02,-1.12 1.57,-2.57 1.56,-4.07 -0.03,-3.3 -2.73,-5.96 -6.03,-5.93zm5.4 12.52l-2.31 -1.03c-1.12,0.61 -2.1,0.91 -2.99,0.91 -3.55,0.03 -6.45,-2.83 -6.48,-6.37 -0.03,-3.54 2.83,-6.45 6.37,-6.47 3.55,-0.03 6.45,2.83 6.48,6.37 0.01,1.58 -0.55,3.09 -1.6,4.28l0.53 2.31z"/>
  <path class="fil11" d="M199.54 348.21l4.23 3.89 2.26 5.51 3.79 -9.48 -10.28 0.08zm6.49 10.57l-2.65 -6.47 -4.97 -4.53 12.06 -0.09 -4.44 11.09z"/>
  <polygon class="fil11" points="203.89,352.33 203.65,351.96 210.23,347.69 210.47,348.05 "/>
  <path class="fil8" d="M172.19 349.13c-0.34,-1.72 -2.05,-3.06 -3.8,-2.99 -1.74,0.07 -3.32,1.52 -3.55,3.24 -0.26,-1.72 -1.86,-3.14 -3.6,-3.18 -1.76,-0.04 -3.44,1.32 -3.76,3.05 -0.23,1.26 0.2,2.57 0.92,3.63 0.71,1.06 1.68,1.92 2.64,2.77 1.34,1.19 2.58,2.3 3.92,3.49 1.33,-1.21 2.46,-2.34 3.78,-3.55 0.94,-0.86 1.9,-1.74 2.59,-2.81 0.7,-1.08 1.11,-2.39 0.86,-3.65z"/>
  <path class="fil0" d="M179.27 139.38c0,4.52 -3.66,8.18 -8.18,8.18 -4.52,0 -8.18,-3.66 -8.18,-8.18 0,-4.51 3.66,-8.17 8.18,-8.17 4.52,0 8.18,3.66 8.18,8.17z"/>
  <path class="fil12" d="M313.71 314.35c0,0.16 -34.29,0.3 -76.58,0.3 -42.31,0 -76.6,-0.14 -76.6,-0.3 0,-0.16 34.29,-0.29 76.6,-0.29 42.29,0 76.58,0.13 76.58,0.29z"/>
  <path class="fil12" d="M313.71 301.59c0,0.17 -34.29,0.3 -76.58,0.3 -42.31,0 -76.6,-0.13 -76.6,-0.3 0,-0.16 34.29,-0.29 76.6,-0.29 42.29,0 76.58,0.13 76.58,0.29z"/>
  <path class="fil12" d="M243.91 327.28c0,0.16 -18.67,0.29 -41.69,0.29 -23.03,0 -41.69,-0.13 -41.69,-0.29 0,-0.16 18.66,-0.3 41.69,-0.3 23.02,0 41.69,0.14 41.69,0.3z"/>
  <path class="fil11" d="M233.62 466.26c-0.01,1.82 -1.47,3.29 -3.27,3.28 -1.8,-0.01 -3.25,-1.49 -3.24,-3.31 0.01,-1.83 1.47,-3.3 3.27,-3.29 1.8,0.01 3.25,1.49 3.24,3.32z"/>
  <path class="fil11" d="M243.71 466.3c-0.01,1.83 -1.48,3.3 -3.27,3.29 -1.8,-0.01 -3.25,-1.49 -3.24,-3.32 0,-1.82 1.47,-3.29 3.26,-3.28 1.8,0 3.25,1.49 3.25,3.31z"/>
  <path class="fil11" d="M253.79 466.35c-0.01,1.82 -1.47,3.29 -3.27,3.29 -1.8,-0.01 -3.25,-1.5 -3.24,-3.32 0.01,-1.82 1.47,-3.3 3.27,-3.29 1.8,0.01 3.25,1.5 3.24,3.32z"/>
  <polygon class="fil14" points="151.54,266.44 332.79,266.39 332.75,155.54 151.5,155.6 "/>
  <polygon class="fil15" points="168.25,266.43 220.19,196.92 252.39,240.39 274.21,217.14 317.01,266.39 "/>
  <path class="fil15" d="M266.04 188.39c0,6.47 -5.24,11.71 -11.71,11.72 -6.47,0 -11.72,-5.24 -11.72,-11.71 0,-6.47 5.24,-11.72 11.71,-11.72 6.47,0 11.71,5.24 11.72,11.71z"/>
  <path class="fil11" d="M332.28 369.43c0,-2.37 -0.11,-102.51 -0.27,-250.74l0.27 0.27c-54.66,0.01 -116.27,0.02 -181.23,0.03l-0.02 0 0.3 -0.3c-0.02,93.77 -0.04,180.55 -0.06,250.74l-0.24 -0.24c109.92,0.15 179.28,0.24 181.25,0.24 -1.97,0 -71.33,0.09 -181.25,0.24l-0.24 0 0 -0.24c-0.01,-70.19 -0.03,-156.97 -0.05,-250.74l0 -0.29 0.31 0c64.96,0.01 126.57,0.01 181.23,0.02l0.27 0 0 0.27c-0.05,74.19 -0.1,136.9 -0.13,181.08 -0.03,22.05 -0.06,39.48 -0.07,51.39 -0.02,5.95 -0.03,10.52 -0.04,13.61 0,1.53 -0.01,2.7 -0.01,3.49 -0.01,0.78 -0.02,1.17 -0.02,1.17z"/>
  <path class="fil16" d="M247.12 400.53l4 -13.47c0.71,-2.92 1.63,-6.37 2.88,-10.3 1.13,-3.54 4.01,-7.25 6.64,-9.92 4.09,-4.17 6.04,-4.19 8.79,-6.4 0.25,-0.17 0.53,-0.4 0.77,-0.52 0.57,-0.31 0.99,-0.72 1.34,-1.16 2.37,-2.56 0.09,-6.53 -4.73,-6.16 -3.62,0.29 -9.53,1.33 -19.14,11.24 -0.12,0.15 -0.25,0.28 -0.37,0.43 -5.04,6.56 -9.78,-12.16 -10.63,-19.13 -0.56,-4.52 -5.45,-7.3 -9.87,-5.66l-23.42 10.95c-1.93,-0.68 -4.23,-0.57 -6.84,0.23 -3.44,1.28 -5.36,4.82 -4.46,8.26l9.5 37.91 -27.89 92.82 60.12 0 13.31 -89.12z"/>
  <path class="fil4" d="M293.3 315.29l-18.58 36.42 -9.29 -2.58 -46.72 37.99c-3.97,3.24 -9.8,2.72 -13.14,-1.16l-17.78 -20.67c0,0 35.86,-15.45 42.49,-28.24 6.63,-12.79 -1.03,-15.68 -1.03,-15.68l16.87 -19.18 47.18 13.1z"/>
  <path class="fil8" d="M269.2 240.9c0,0 -27.21,-6.02 -65.49,-42.83 -38.28,-36.82 -56.27,-85.7 -60.96,-85.46 -0.44,0.02 -1.01,-0.04 -1.73,-0.11 -6.95,-0.61 -27.06,-1.22 -62.33,75.49 -38.91,84.65 -23.58,104.31 -15.84,104.15 7.75,-0.16 60.33,-14.81 93.17,-11.07 32.84,3.73 75.05,20.84 75.05,20.84l38.13 -61.01z"/>
  <path class="fil13" d="M326.99 287.04l-9.28 17.64 -4.16 7.91c-5.7,10.84 -18.89,15.32 -30.02,10.2l-58.31 -20.32 33.96 -77.52 58.26 31.04c11.18,5.96 15.45,19.83 9.55,31.05z"/>
  <path class="fil17 str1" d="M293.15 324.9c-1.5,0 -3.02,-0.14 -4.52,-0.45 -1.73,-0.35 -3.44,-0.9 -5.1,-1.66l-42.5 -14.81 -15.81 -5.51 33.96 -77.52 58.26 31.04c7.77,4.15 12.2,12.11 12.2,20.35 0,3.62 -0.85,7.28 -2.65,10.7l-1.02 1.94 0 0 -7.86 14.95 -0.4 0.75 -4.16 7.91c-4.1,7.8 -12.09,12.31 -20.4,12.31z"/>
  <path class="fil13" d="M81.84 189.54c-20.71,45.85 -29.33,86.71 -19.26,91.26 10.08,4.55 35.03,-28.93 55.74,-74.78 20.71,-45.86 29.34,-86.72 19.26,-91.27 -10.08,-4.55 -35.03,28.93 -55.74,74.79z"/>
  <path class="fil18 str1" d="M64.59 281.22c-0.72,0 -1.39,-0.14 -2.01,-0.42 -2.86,-1.29 -4.21,-5.5 -4.21,-11.92 0,-16.21 8.63,-46.5 23.47,-79.34 19.44,-43.06 42.63,-75.21 53.73,-75.21 0.72,0 1.4,0.14 2.01,0.42 2.86,1.29 4.21,5.5 4.21,11.92 0,16.21 -8.63,46.5 -23.47,79.35 -19.44,43.05 -42.63,75.2 -53.73,75.2z"/>
  <polygon class="fil4" points="331.99,312.54 316.19,307.57 325.97,288.98 337.82,296.34 "/>
  <path class="fil19" d="M319.44 308.59l-3.25 -1.02 3.25 1.02 0 0zm7.95 -18.73l-1.42 -0.88 1.42 0.88z"/>
  <polygon class="fil18" points="319.44,308.59 316.19,307.57 325.97,288.98 325.97,288.98 327.39,289.86 "/>
  <path class="fil4" d="M315.08 293.27c-0.23,0.51 -8.12,-2.56 -17.62,-6.85 -9.5,-4.29 -17.01,-8.19 -16.78,-8.7 0.23,-0.51 8.12,2.55 17.62,6.85 9.5,4.29 17.01,8.18 16.78,8.7z"/>
  <path class="fil4" d="M319.94 282.19c-0.25,0.5 -7.39,-2.5 -15.94,-6.72 -8.56,-4.21 -15.3,-8.04 -15.05,-8.54 0.25,-0.5 7.38,2.5 15.94,6.72 8.56,4.22 15.3,8.04 15.05,8.54z"/>
  <path class="fil4" d="M308.95 304.88c-0.08,0.27 -1.96,-0.16 -4.96,-1.09 -1.49,-0.46 -3.27,-1.04 -5.23,-1.72 -1.95,-0.71 -3.97,-1.73 -6.14,-2.71 -8.64,-4.02 -15.24,-7.95 -15.03,-8.41 0.26,-0.55 7.32,2.59 15.88,6.56 2.15,0.97 4.14,2.05 6.02,2.83 1.89,0.77 3.58,1.48 4.99,2.1 2.83,1.26 4.55,2.17 4.47,2.44z"/>
  <path class="fil8" d="M124.06 179.34c0,0 -23.64,-14.66 -36.58,17.28 -12.94,31.95 11.94,37.2 11.94,37.2 10.18,-15.79 18.45,-33.88 24.64,-54.48z"/>
  <path class="fil18" d="M81.48 280.72c-0.01,0 -0.01,0 -0.01,-0.01 -0.11,-0.09 1.18,-1.86 3.62,-5 2.52,-3.2 6.06,-7.7 10.41,-13.21 2,-2.93 4.19,-6.13 6.53,-9.56 1.17,-1.72 2.39,-3.49 3.64,-5.31 0.63,-0.91 1.27,-1.84 1.91,-2.78 0.63,-0.95 1.17,-1.97 1.77,-2.98 2.35,-4.05 4.82,-8.3 7.38,-12.7 0.64,-1.1 1.29,-2.21 1.94,-3.32 0.67,-1.12 1.16,-2.33 1.76,-3.5 1.15,-2.37 2.31,-4.77 3.49,-7.2 1.18,-2.43 2.35,-4.83 3.5,-7.19 0.55,-1.19 1.2,-2.33 1.66,-3.54 0.47,-1.2 0.95,-2.4 1.41,-3.58 1.88,-4.73 3.69,-9.3 5.42,-13.65 0.42,-1.09 0.89,-2.15 1.26,-3.23 0.33,-1.09 0.67,-2.16 0.99,-3.22 0.67,-2.12 1.31,-4.17 1.93,-6.16 1.25,-3.96 2.41,-7.66 3.48,-11.05 1.64,-6.81 2.98,-12.36 3.94,-16.32 0.95,-3.82 1.55,-5.94 1.7,-5.94 0,0 0,0 0,0 0.14,0.02 -0.2,2.19 -0.93,6.1 -0.75,3.9 -1.8,9.57 -3.32,16.53 -1,3.42 -2.09,7.17 -3.26,11.18 -0.6,2.01 -1.21,4.08 -1.84,6.22 -0.32,1.07 -0.64,2.16 -0.97,3.26 -0.35,1.09 -0.81,2.16 -1.22,3.26 -1.7,4.4 -3.49,9.01 -5.34,13.79 -0.47,1.19 -0.94,2.39 -1.41,3.61 -0.46,1.22 -1.11,2.37 -1.66,3.57 -1.16,2.38 -2.33,4.8 -3.52,7.25 -1.19,2.44 -2.36,4.86 -3.52,7.24 -0.6,1.18 -1.11,2.4 -1.78,3.52 -0.66,1.12 -1.32,2.23 -1.97,3.34 -2.61,4.41 -5.13,8.67 -7.54,12.72 -0.61,1.01 -1.17,2.03 -1.81,2.98 -0.66,0.94 -1.32,1.87 -1.96,2.78 -1.3,1.82 -2.55,3.59 -3.77,5.3 -2.43,3.41 -4.7,6.58 -6.78,9.49 -4.52,5.48 -8.31,9.8 -10.91,12.8 -2.55,2.91 -4.04,4.51 -4.22,4.51z"/>
  <path class="fil20" d="M228.87 339.03c0.94,-1.27 1.63,-2.43 2.13,-3.44 -0.22,0.47 -0.46,0.96 -0.72,1.46 -0.34,0.65 -0.75,1.31 -1.22,1.96 -0.07,0.01 -0.13,0.01 -0.19,0.02zm2.96 -5.44c0.68,-2 0.6,-3.11 0.89,-3.12 0,0 0.01,0 0.01,0 -0.19,0.95 -0.48,1.98 -0.9,3.12z"/>
  <path class="fil21" d="M201.71 358.58c2.5,-1.35 5.67,-3.11 9.61,-5.38 0.02,-0.01 0.03,-0.01 0.05,-0.02 -3.27,1.96 -6.59,3.79 -9.66,5.4zm21.46 -13.56c2.55,-2.2 4.38,-4.22 5.7,-5.99 0.06,-0.01 0.12,-0.01 0.19,-0.02 -1.44,1.99 -3.48,4.01 -5.89,6.01z"/>
  <path class="fil18" d="M211.88 378.73c-4.05,0 -7.96,-2.1 -10.88,-4.96 -3.19,-3.13 -5.39,-7.1 -7.55,-11.02 0,0 2.19,-0.9 8.26,-4.17 3.07,-1.61 6.39,-3.44 9.66,-5.4 5.07,-2.92 8.9,-5.66 11.8,-8.16 2.41,-2 4.45,-4.02 5.89,-6.01 0.47,-0.65 0.88,-1.31 1.22,-1.96 0.26,-0.5 0.5,-0.99 0.72,-1.46 0.36,-0.74 0.63,-1.41 0.83,-2 0.42,-1.14 0.71,-2.17 0.9,-3.12 0.63,-0.07 1.24,-0.11 1.81,-0.11 2.72,0 4.89,0.76 7.78,1.66 1.25,0.39 2.56,0.95 3.25,2.07 1.16,1.92 -0.18,4.56 -2.18,5.57 -1.25,0.63 -2.64,0.81 -4.05,0.81 -0.85,0 -1.71,-0.06 -2.55,-0.13 1.85,2.81 3.72,5.68 4.66,8.91 0.94,3.24 0.82,6.95 -1.12,9.7 -1.35,1.92 -3.71,3.16 -6,3.16 -1,0 -1.98,-0.24 -2.87,-0.76 -0.21,2.66 -0.78,5.44 -2.55,7.44 -1.13,1.29 -2.88,2.1 -4.56,2.1 -0.93,0 -1.85,-0.25 -2.62,-0.83 -0.04,4.47 -4.26,8.16 -8.7,8.61 -0.39,0.04 -0.77,0.06 -1.15,0.06z"/>
  <path class="fil22" d="M244.93 376.62c-0.02,0.1 -1.54,-0.19 -4.01,-0.12 -2.45,0.05 -5.88,0.59 -9.26,2.22 -3.39,1.62 -5.96,3.96 -7.54,5.83 -1.59,1.88 -2.32,3.25 -2.41,3.2 -0.03,-0.02 0.12,-0.38 0.45,-0.99 0.33,-0.62 0.87,-1.48 1.64,-2.47 1.53,-1.98 4.12,-4.44 7.6,-6.11 3.49,-1.67 7.02,-2.15 9.52,-2.1 1.26,0.02 2.27,0.14 2.96,0.27 0.68,0.12 1.06,0.23 1.05,0.27z"/>
  <path class="fil16" d="M194.94 356.66c3.69,3.54 6.2,7.45 10.07,11.01 1.75,1.62 4.48,4.68 6.83,5.09 2.35,0.41 3.86,0.1 4.79,-2.1 0.75,-1.78 -0.6,-4.21 -1.53,-5.68 -2.47,-3.86 -4.82,-6.88 -6.66,-9.88 -0.86,-1.41 0.25,-1.7 0.66,-1.05 1.77,1.84 4.42,3.43 6,5.43 2.18,2.74 2.57,6.37 8.26,5.22 0.75,-0.15 1.5,-0.41 2.11,-0.88 2.14,-1.63 2.23,-4.48 1.33,-6.76 -0.71,-1.79 -1.94,-3.31 -3.17,-4.8 2.43,2.74 5.07,5.62 8.92,5.93 2.24,0.18 4.48,-0.87 5.39,-2.92 1.14,-2.59 -0.5,-5.09 -2.13,-7.11 -2.91,-3.58 -6.15,-6.89 -9.67,-9.87 -1.31,-1.11 -2.98,-1.73 -4.7,-1.75 -1.99,-0.01 -4.48,0.37 -5.71,2.1 -2.24,3.14 -1.55,5.92 -1.55,5.92 0,0 -4.99,-2.53 -9,0.12 -4.02,2.65 -5.01,7.2 -5.01,7.2l-5.23 4.78z"/>
  <path class="fil16" d="M221.51 335.45c-1.54,-1.56 -1.9,-4.4 -0.7,-6.76 0.85,-1.66 1.92,-3.28 3.01,-3.64 4.74,-1.61 25.5,1.98 25.31,6.59 -0.2,4.73 -1.71,6.81 -12.97,5.18 -1.98,-0.28 -5.09,-0.67 -5.09,-0.67l-2.72 4.08 -6.84 -4.78z"/>
  <path class="fil22" d="M225.23 354.73c-0.16,0.1 -1.74,-3.12 -4.97,-6.01 -3.19,-2.92 -6.55,-4.18 -6.46,-4.36 0.02,-0.06 0.89,0.16 2.19,0.78 1.31,0.61 3.03,1.66 4.67,3.15 1.63,1.48 2.85,3.09 3.59,4.33 0.74,1.24 1.04,2.08 0.98,2.11z"/>
  <path class="fil22" d="M228.72 340.58c-0.1,0.1 -1.47,-1.02 -3.34,-2.16 -0.93,-0.58 -1.79,-1.06 -2.44,-1.35 -0.64,-0.3 -1.06,-0.38 -1.06,-0.47 -0.01,-0.07 0.49,-0.14 1.21,0.08 0.72,0.21 1.65,0.65 2.6,1.23 1.92,1.17 3.17,2.55 3.03,2.67z"/>
  <path class="fil22" d="M232.21 336.3c-0.02,0.12 -1.82,0.18 -4,-0.45 -1.08,-0.33 -2,-0.85 -2.56,-1.34 -0.57,-0.49 -0.81,-0.89 -0.75,-0.94 0.11,-0.1 1.4,1.12 3.48,1.71 2.06,0.6 3.86,0.82 3.83,1.02z"/>
  <path class="fil22" d="M212.04 360.44c-0.07,0.04 -0.8,-0.89 -1.9,-2.46 -1.11,-1.54 -2.53,-3.83 -4.84,-5.51 -2.31,-1.68 -5.04,-2.08 -6.86,-1.82 -1.86,0.26 -2.83,1.03 -2.89,0.92 -0.02,-0.03 0.2,-0.24 0.66,-0.52 0.46,-0.3 1.2,-0.62 2.16,-0.81 1.91,-0.39 4.82,-0.04 7.27,1.75 2.45,1.79 3.83,4.17 4.85,5.75 1.01,1.64 1.61,2.65 1.55,2.7z"/>
  <path class="fil22" d="M227.91 406.34c0.02,0.16 -3.78,0.7 -8.48,1.21 -4.7,0.52 -8.53,0.8 -8.55,0.64 -0.01,-0.17 3.78,-0.71 8.49,-1.22 4.7,-0.51 8.53,-0.8 8.54,-0.63z"/>
  <polygon class="fil23" points="406.45,29.42 407.73,31.76 410.07,33.04 407.73,34.32 406.45,36.66 405.17,34.32 402.83,33.04 405.17,31.76 "/>
  <polygon class="fil24" points="433.2,87.41 434.48,89.75 436.82,91.03 434.48,92.31 433.2,94.65 431.92,92.31 429.58,91.03 431.92,89.75 "/>
  <polygon class="fil25" points="4.42,242.13 5.7,244.47 8.04,245.75 5.7,247.03 4.42,249.37 3.15,247.03 0.81,245.75 3.15,244.47 "/>
  <polygon class="fil26" points="371.35,43.83 374.3,49.23 379.71,52.19 374.3,55.14 371.35,60.54 368.4,55.14 362.99,52.19 368.4,49.23 "/>
  <polygon class="fil25" points="28.4,205.37 31.35,210.76 36.74,213.71 31.35,216.66 28.4,222.05 25.46,216.66 20.07,213.71 25.46,210.76 "/>
  <polygon class="fil8" points="440.48,333.97 443.43,339.36 448.82,342.31 443.43,345.26 440.48,350.65 437.53,345.26 432.14,342.31 437.53,339.36 "/>
  <polygon class="fil2" points="119.23,540.82 122.18,546.22 127.59,549.17 122.18,552.13 119.23,557.53 116.28,552.13 110.87,549.17 116.28,546.22 "/>
  <polygon class="fil8" points="334.72,526.16 337.31,530.9 342.05,533.49 337.31,536.08 334.72,540.82 332.13,536.08 327.39,533.49 332.13,530.9 "/>
 </g>
</svg>
