<?xml version="1.0" encoding="UTF-8"?>
<!DOCTYPE svg PUBLIC "-//W3C//DTD SVG 1.0//EN" "http://www.w3.org/TR/2001/REC-SVG-20010904/DTD/svg10.dtd">
<!-- Creator: CorelDRAW 2021 (64-Bit) -->
<svg xmlns="http://www.w3.org/2000/svg" xml:space="preserve" width="600px" height="600px" version="1.0" style="shape-rendering:geometricPrecision; text-rendering:geometricPrecision; image-rendering:optimizeQuality; fill-rule:evenodd; clip-rule:evenodd"
viewBox="0 0 600 600"
 xmlns:xlink="http://www.w3.org/1999/xlink"
 xmlns:xodm="http://www.corel.com/coreldraw/odm/2003">
 <defs>
  <style type="text/css">
   <![CDATA[
    .str1 {stroke:#845CFF;stroke-width:2;stroke-linecap:round;stroke-linejoin:round;stroke-miterlimit:22.9256}
    .str0 {stroke:#EFEFFC;stroke-width:2;stroke-linecap:round;stroke-linejoin:round;stroke-miterlimit:22.9256}
    .fil7 {fill:#FEFEFE}
    .fil0 {fill:#EFEFFC}
    .fil2 {fill:#FEFEFE;fill-rule:nonzero}
    .fil12 {fill:#F9B39B;fill-rule:nonzero}
    .fil18 {fill:#F69775;fill-rule:nonzero}
    .fil10 {fill:#F1626C;fill-rule:nonzero}
    .fil3 {fill:#EFEFEF;fill-rule:nonzero}
    .fil1 {fill:#E5E6E5;fill-rule:nonzero}
    .fil11 {fill:#D9DAD9;fill-rule:nonzero}
    .fil17 {fill:#A17364;fill-rule:nonzero}
    .fil16 {fill:#919697;fill-rule:nonzero}
    .fil15 {fill:#646869;fill-rule:nonzero}
    .fil9 {fill:#42616A;fill-rule:nonzero}
    .fil8 {fill:#2C3C43;fill-rule:nonzero}
    .fil13 {fill:#845CFF;fill-rule:nonzero}
    .fil14 {fill:#845CFF;fill-rule:nonzero}
    .fil6 {fill:#A39CFF;fill-rule:nonzero}
    .fil5 {fill:#A39CFF;fill-rule:nonzero}
    .fil4 {fill:white;fill-rule:nonzero}
   ]]>
  </style>
 </defs>
 <g id="Capa_x0020_1">
  <metadata id="CorelCorpID_0Corel-Layer"/>
  <rect class="fil0 str0" x="4.26" y="-0.58" width="600" height="600"/>
  <path class="fil1" d="M164.8 139.37l0 0c-21.17,0 -38.34,-17.17 -38.34,-38.34 0,-21.17 17.17,-38.34 38.34,-38.34 21.17,0 38.34,17.17 38.34,38.34 0,21.17 -17.17,38.34 -38.34,38.34z"/>
  <polygon class="fil2" points="147.42,118.12 155.35,118.12 155.35,92.48 147.42,92.48 "/>
  <path class="fil2" d="M151.35 89.13c2.59,0 4.69,-2.12 4.69,-4.74 0,-2.61 -2.1,-4.72 -4.69,-4.72 -2.6,0 -4.7,2.11 -4.7,4.72 0,2.62 2.1,4.74 4.7,4.74z"/>
  <path class="fil2" d="M168.03 104.66c0,-3.6 1.66,-5.75 4.84,-5.75 2.92,0 4.32,2.06 4.32,5.75 0,3.69 0,13.46 0,13.46l7.9 0c0,0 0,-9.37 0,-16.23 0,-6.87 -3.9,-10.19 -9.33,-10.19 -5.44,0 -7.73,4.24 -7.73,4.24l0 -3.46 -7.61 0 0 25.64 7.61 0c0,0 0,-9.51 0,-13.46z"/>
  <polygon class="fil3" points="216.18,24.68 221.43,34.28 231.03,39.53 221.43,44.78 216.18,54.38 210.93,44.78 201.33,39.53 210.93,34.28 "/>
  <polygon class="fil4" points="435.14,284.74 439.07,291.94 446.27,295.88 439.07,299.81 435.14,307.01 431.2,299.81 424,295.88 431.2,291.94 "/>
  <polygon class="fil4" points="446.27,249.19 448.05,252.44 451.3,254.22 448.05,256 446.27,259.24 444.5,256 441.25,254.22 444.5,252.44 "/>
  <polygon class="fil5" points="178.68,28.29 180.46,31.54 183.71,33.31 180.46,35.09 178.68,38.34 176.91,35.09 173.66,33.31 176.91,31.54 "/>
  <path class="fil4" d="M89.63 330.05c4,-1.74 6.81,-5.93 6.77,-10.83 -0.05,-6.41 -4.97,-11.57 -10.98,-11.52 -6.01,0.05 -10.84,5.29 -10.78,11.7 0.04,4.94 2.98,9.11 7.07,10.75 -16.72,2.74 -15.72,20.94 -15.72,20.94l39.61 -0.34c0,0 0.66,-18.41 -15.97,-20.7z"/>
  <path class="fil5" d="M469.56 449.99c-0.56,-2.85 -3.37,-5.08 -6.27,-4.97 -2.88,0.1 -5.49,2.49 -5.89,5.33 -0.41,-2.84 -3.05,-5.2 -5.93,-5.28 -2.9,-0.08 -5.69,2.18 -6.23,5.03 -0.39,2.08 0.33,4.24 1.5,6 1.17,1.77 2.76,3.19 4.34,4.6 2.22,1.97 4.26,3.82 6.48,5.79 2.19,-1.99 4.06,-3.86 6.26,-5.85 1.56,-1.42 3.15,-2.86 4.3,-4.63 1.16,-1.77 1.85,-3.94 1.44,-6.02z"/>
  <path class="fil4" d="M495.36 214.1l4.25 -0.84 6.7 -14.75 -1.68 -8.47c0,0 6.48,-1.7 7.91,9.54 1.42,11.25 1.7,8.26 1.7,8.26 0,0 13.94,-2.71 15.34,-1.73 1.01,0.71 4.14,14.48 5.77,21.95 0.83,3.77 -0.8,7.74 -4.13,9.33 -0.48,0.22 -0.96,0.4 -1.46,0.5 -3.47,0.69 -21.79,1.38 -21.79,1.38l-7.33 1.45 -5.28 -26.62z"/>
  <polygon class="fil4" points="482.75,214.19 491.12,242.7 498.39,241.26 492.74,212.81 "/>
  <path class="fil6" d="M497.96 331.16c-16.18,-6.18 -24.28,-24.3 -18.1,-40.48 6.18,-16.18 24.31,-24.29 40.49,-18.1 11.94,4.56 19.48,15.63 20.13,27.62l0 3.34c-0.17,3.18 -0.83,6.39 -2.03,9.52 -6.18,16.18 -24.31,24.29 -40.49,18.1z"/>
  <path class="fil7" d="M504.58 314.73c-2.7,-1.03 -4.9,-2.79 -6.47,-4.97l-5.71 -0.32 3.52 -4.26c-0.76,-2.78 -0.68,-5.8 0.42,-8.68 0.16,-0.43 0.35,-0.85 0.56,-1.25 3.19,-6.42 10.86,-9.47 17.74,-6.84 6.96,2.66 10.64,10.2 8.58,17.18 -0.1,0.35 -0.22,0.7 -0.35,1.05 -2.77,7.26 -10.98,10.88 -18.29,8.09zm20.95 -7.54c3.02,-8.54 -1.36,-18 -9.94,-21.28 -8.48,-3.24 -17.93,0.76 -21.48,8.95 -0.1,0.22 -0.19,0.45 -0.28,0.68 -1.13,2.96 -1.36,6.04 -0.83,8.95l-6.05 7.31 9.8 0.56c1.78,2.11 4.11,3.81 6.87,4.87 8.72,3.33 18.46,-0.99 21.76,-9.63 0.05,-0.14 0.11,-0.27 0.15,-0.41z"/>
  <path class="fil7" d="M515.63 307.49c-0.32,-0.34 -1.86,-2 -2.17,-2.26 -0.3,-0.27 -0.54,-0.42 -0.94,-0.14 -0.41,0.29 -1.48,0.87 -1.8,1.03 -0.33,0.17 -0.56,0.12 -0.88,-0.22 -0.31,-0.34 -1.41,-1.22 -2.38,-3.1 -0.76,-1.45 -1.06,-3 -1.14,-3.47 -0.07,-0.47 0.21,-0.6 0.47,-0.72 0.25,-0.11 0.56,-0.3 0.84,-0.45l0.21 -0.13c0.14,-0.1 0.26,-0.21 0.42,-0.36 0.23,-0.21 0.25,-0.46 0.23,-0.69 -0.02,-0.22 -0.08,-2.41 -0.11,-3.3 -0.02,-0.89 -0.4,-0.88 -0.63,-0.97 -0.22,-0.09 -0.46,-0.22 -0.72,-0.32 -0.26,-0.1 -0.72,-0.17 -1.22,0.08 -0.5,0.25 -1.85,0.8 -2.58,2.69 -0.16,0.45 -0.25,0.92 -0.3,1.39 -0.12,1.5 0.29,2.94 0.37,3.18 0.1,0.33 1.05,5.28 4.39,8.33 3.35,3.03 3.54,2.52 4.28,2.72 0.73,0.21 2.64,-0.05 3.3,-0.83 0.67,-0.77 0.96,-1.53 0.93,-1.73 -0.04,-0.2 -0.26,-0.39 -0.57,-0.73z"/>
  <path class="fil6" d="M90.18 186.22l0 0c-13.2,0 -23.91,-10.7 -23.91,-23.91 0,-13.2 10.71,-23.91 23.91,-23.91 13.21,0 23.92,10.71 23.92,23.91 0,13.21 -10.71,23.91 -23.92,23.91z"/>
  <path class="fil2" d="M77.44 170.32c2.32,1.48 5.07,2.35 8.02,2.35 9.7,0 15.19,-8.2 14.86,-15.56 1.02,-0.73 1.9,-1.65 2.61,-2.7 -0.94,0.41 -1.95,0.69 -3.01,0.82 1.08,-0.64 1.91,-1.67 2.3,-2.89 -1.01,0.6 -2.13,1.03 -3.32,1.27 -0.95,-1.02 -2.31,-1.65 -3.81,-1.65 -3.38,0 -5.86,3.15 -5.1,6.42 -4.34,-0.22 -8.19,-2.3 -10.77,-5.47 -1.37,2.35 -0.71,5.43 1.62,6.98 -0.86,-0.02 -1.67,-0.26 -2.37,-0.65 -0.06,2.42 1.68,4.69 4.19,5.19 -0.73,0.2 -1.54,0.25 -2.36,0.09 0.66,2.08 2.6,3.59 4.88,3.63 -2.19,1.73 -4.96,2.5 -7.74,2.17z"/>
  <path class="fil5" d="M133.16 454.11l0 0c-22.13,5.27 -44.34,-8.4 -49.61,-30.52 -5.27,-22.13 8.39,-44.34 30.52,-49.61l0 0c22.13,-5.28 44.34,8.39 49.61,30.51 5.27,22.13 -8.39,44.34 -30.52,49.62z"/>
  <path class="fil2" d="M118.38 392.07c-5.97,1.42 -6.71,1.63 -9.02,2.29 -2.32,0.67 -3.83,1.42 -5.09,2.29 -1.32,0.91 -2.36,1.95 -3.29,3.46 -0.93,1.52 -1.39,2.92 -1.61,4.5 -0.21,1.53 -0.2,3.21 0.25,5.57 0.45,2.37 0.61,3.13 2.03,9.1 1.42,5.96 1.62,6.7 2.29,9.02 0.66,2.31 1.41,3.82 2.29,5.09 0.9,1.31 1.95,2.36 3.46,3.29 1.51,0.93 2.92,1.39 4.49,1.6 1.53,0.21 3.21,0.21 5.58,-0.25 2.37,-0.45 3.12,-0.6 9.09,-2.02 5.96,-1.42 6.71,-1.63 9.02,-2.29 2.32,-0.66 3.82,-1.42 5.09,-2.29 1.31,-0.91 2.36,-1.95 3.29,-3.46 0.93,-1.51 1.39,-2.92 1.61,-4.5 0.21,-1.52 0.2,-3.21 -0.25,-5.57 -0.45,-2.37 -0.61,-3.13 -2.03,-9.09 -1.42,-5.97 -1.62,-6.71 -2.29,-9.03 -0.66,-2.31 -1.41,-3.82 -2.29,-5.09 -0.9,-1.31 -1.95,-2.35 -3.46,-3.29 -1.51,-0.92 -2.92,-1.38 -4.5,-1.6 -1.52,-0.21 -3.21,-0.2 -5.57,0.25 -2.37,0.45 -3.12,0.6 -9.09,2.02zm0.94 3.96c5.87,-1.4 6.57,-1.54 8.91,-1.99 2.17,-0.41 3.42,-0.33 4.26,-0.21 1.12,0.15 1.97,0.45 2.92,1.04 0.95,0.59 1.6,1.2 2.24,2.13 0.49,0.71 1.12,1.79 1.73,3.9 0.66,2.29 0.85,2.99 2.24,8.85 1.4,5.87 1.54,6.57 1.99,8.91 0.41,2.16 0.33,3.41 0.22,4.26 -0.16,1.12 -0.46,1.96 -1.05,2.92 -0.58,0.95 -1.2,1.6 -2.13,2.24 -0.7,0.48 -1.78,1.12 -3.9,1.73 -2.29,0.66 -2.98,0.84 -8.85,2.24 -5.86,1.4 -6.56,1.54 -8.9,1.99 -2.17,0.41 -3.42,0.33 -4.26,0.21 -1.12,-0.15 -1.97,-0.45 -2.92,-1.04 -0.95,-0.58 -1.6,-1.2 -2.24,-2.13 -0.49,-0.71 -1.12,-1.78 -1.73,-3.9 -0.66,-2.29 -0.85,-2.98 -2.24,-8.85 -1.4,-5.86 -1.55,-6.56 -1.99,-8.91 -0.41,-2.16 -0.33,-3.41 -0.22,-4.26 0.16,-1.12 0.46,-1.96 1.04,-2.91 0.59,-0.96 1.21,-1.61 2.14,-2.25 0.7,-0.48 1.78,-1.12 3.9,-1.73 2.29,-0.65 2.98,-0.84 8.84,-2.24z"/>
  <path class="fil2" d="M125.36 421.36c-4.05,0.97 -8.1,-1.53 -9.07,-5.58 -0.96,-4.04 1.53,-8.1 5.58,-9.06 4.04,-0.97 8.1,1.53 9.07,5.58 0.96,4.04 -1.54,8.1 -5.58,9.06zm-4.43 -18.6c-6.23,1.48 -10.08,7.74 -8.6,13.97 1.49,6.23 7.74,10.07 13.97,8.59 6.23,-1.48 10.08,-7.74 8.6,-13.97 -1.49,-6.23 -7.74,-10.07 -13.97,-8.59z"/>
  <path class="fil2" d="M135.18 398.89c0.35,1.46 -0.55,2.92 -2,3.27 -1.46,0.34 -2.92,-0.56 -3.27,-2.01 -0.35,-1.46 0.55,-2.92 2.01,-3.27 1.46,-0.34 2.92,0.56 3.26,2.01z"/>
  <path class="fil5" d="M445.14 417.86l0 0c-10.61,0 -19.21,-8.6 -19.21,-19.21 0,-10.61 8.6,-19.21 19.21,-19.21 10.6,0 19.2,8.6 19.2,19.21 0,10.61 -8.6,19.21 -19.2,19.21z"/>
  <path class="fil2" d="M442.21 410.26l4.67 0 0 -11.71 3.27 0 0.34 -3.92 -3.61 0c0,0 0,-1.46 0,-2.23 0,-0.93 0.19,-1.29 1.08,-1.29 0.72,0 2.53,0 2.53,0l0 -4.07c0,0 -2.66,0 -3.23,0 -3.48,0 -5.05,1.53 -5.05,4.47 0,2.55 0,3.12 0,3.12l-2.43 0 0 3.97 2.43 0 0 11.66z"/>
  <path class="fil8" d="M379.63 523.97l-154.31 -0.09c-18.56,-0.01 -33.6,-15.06 -33.59,-33.62l0.07 -386.85c0,-18.57 15.06,-33.62 33.63,-33.61l154.31 0.09c18.56,0.01 33.6,15.06 33.6,33.62l-0.08 386.86c0,18.57 -15.06,33.62 -33.63,33.6z"/>
  <path class="fil2" d="M379.58 83.58l-29.92 -0.02c-4.01,0 -7.27,3.39 -7.27,7.59l0 5.43c0,4.19 -3.25,7.59 -7.26,7.59l-58.32 -0.04c-4.01,0 -7.26,-3.4 -7.26,-7.6l0 -5.42c0,-4.2 -3.25,-7.6 -7.27,-7.6l-10.52 -0.01 -26.18 -0.02c-13.01,0 -23.55,10.54 -23.56,23.54l-0.07 377.6c0,13 10.53,23.54 23.53,23.55l154 0.09c13,0 23.55,-10.53 23.55,-23.54l0.08 -377.6c0,-13 -10.53,-23.54 -23.53,-23.54z"/>
  <path class="fil8" d="M381.83 114.25c0,0.1 -3.89,0.22 -8.69,0.26 -4.8,0.04 -8.69,-0.01 -8.69,-0.12 0,-0.1 3.89,-0.21 8.69,-0.25 4.8,-0.04 8.69,0.01 8.69,0.11z"/>
  <path class="fil8" d="M381.87 118.7c0,0.1 -3.89,0.21 -8.69,0.25 -4.8,0.04 -8.69,-0.01 -8.69,-0.11 0,-0.1 3.89,-0.21 8.69,-0.25 4.8,-0.04 8.69,0.01 8.69,0.11z"/>
  <path class="fil8" d="M381.91 123.15c0,0.1 -3.89,0.21 -8.69,0.25 -4.8,0.04 -8.69,-0.01 -8.69,-0.11 -0.01,-0.1 3.88,-0.22 8.68,-0.26 4.8,-0.04 8.7,0.01 8.7,0.12z"/>
  <path class="fil8" d="M218.2 127.48c0,-0.01 0.16,-0.02 0.45,-0.03 0.36,-0.01 0.78,-0.02 1.27,-0.04 1.19,-0.03 2.76,-0.06 4.67,-0.11l-0.12 0.13c-0.02,-1.04 -0.04,-2.17 -0.06,-3.39 0.01,-0.63 -0.05,-1.22 0.01,-1.95 0.12,-0.73 0.77,-1.37 1.57,-1.44 0.75,-0.02 1.42,-0.05 2.23,-0.02 0.85,0.11 1.56,0.92 1.54,1.81 0.01,1.58 0.03,3.23 0.05,4.95l-0.21 -0.22c1.89,-0.02 3.86,-0.04 5.9,-0.06l-0.23 0.23c-0.02,-2.38 -0.04,-4.83 -0.06,-7.35 -0.01,-0.63 -0.01,-1.25 -0.02,-1.87 0,-0.58 -0.35,-0.96 -0.83,-1.4 -0.87,-0.86 -1.73,-1.7 -2.58,-2.54 -0.84,-0.83 -1.67,-1.65 -2.49,-2.45 -0.4,-0.4 -0.81,-0.8 -1.2,-1.19 -0.42,-0.4 -0.74,-0.82 -1.22,-0.92 -0.47,-0.12 -0.98,-0.02 -1.36,0.26 -0.35,0.31 -0.74,0.73 -1.09,1.08 -0.73,0.74 -1.44,1.45 -2.12,2.14 -1.33,1.38 -2.72,2.64 -3.73,3.84 -0.42,0.66 -0.27,1.47 -0.3,2.2 0,0.73 0,1.43 0,2.08 -0.01,1.27 -0.02,2.39 -0.02,3.35 -0.01,0.86 -0.02,1.56 -0.03,2.14 0,0.5 -0.01,0.76 -0.02,0.77 -0.02,0.01 -0.03,-0.23 -0.04,-0.71 -0.02,-0.57 -0.04,-1.26 -0.06,-2.11 -0.03,-0.96 -0.05,-2.09 -0.08,-3.37 -0.01,-0.67 -0.03,-1.38 -0.04,-2.12 0,-0.38 -0.01,-0.76 -0.02,-1.16 0,-0.42 0.11,-0.85 0.33,-1.24 1.09,-1.33 2.39,-2.52 3.73,-3.94 0.68,-0.7 1.38,-1.41 2.1,-2.15 0.38,-0.37 0.69,-0.74 1.14,-1.13 0.48,-0.36 1.12,-0.49 1.71,-0.34 0.63,0.14 1.04,0.66 1.42,1.02 0.4,0.39 0.8,0.78 1.21,1.18 0.82,0.8 1.65,1.62 2.5,2.45 0.85,0.83 1.71,1.68 2.58,2.54 0.21,0.22 0.46,0.4 0.66,0.71 0.19,0.29 0.3,0.64 0.31,0.99 0.01,0.63 0.01,1.26 0.02,1.89 0.02,2.51 0.04,4.97 0.05,7.35l0.01 0.22 -0.23 0.01c-2.03,0.01 -4.01,0.02 -5.9,0.03l-0.22 0 0 -0.21c-0.01,-1.71 -0.02,-3.37 -0.02,-4.95 0.02,-0.71 -0.53,-1.34 -1.2,-1.43 -0.68,-0.04 -1.48,-0.01 -2.14,-0.01 -0.63,0.06 -1.16,0.57 -1.27,1.15 -0.06,0.59 -0.01,1.29 -0.02,1.89 0,1.22 0,2.35 0,3.39l0 0.13 -0.13 0c-1.95,-0.01 -3.54,-0.02 -4.76,-0.03 -0.48,-0.01 -0.89,-0.02 -1.23,-0.02 -0.28,-0.01 -0.42,-0.02 -0.41,-0.03z"/>
  <path class="fil9" d="M319.99 422.54c0,0.04 -0.58,0.08 -1.62,0.11 -1.15,0.03 -2.63,0.06 -4.41,0.1 -3.72,0.05 -8.86,0.08 -14.54,0.08 -5.68,0 -10.83,-0.03 -14.55,-0.08 -1.78,-0.04 -3.26,-0.07 -4.41,-0.1 -1.04,-0.03 -1.62,-0.07 -1.62,-0.11 0,-0.04 0.58,-0.08 1.62,-0.11 1.15,-0.03 2.63,-0.06 4.41,-0.1 3.72,-0.05 8.87,-0.08 14.55,-0.08 5.68,0 10.82,0.03 14.54,0.08 1.78,0.04 3.26,0.07 4.41,0.1 1.04,0.03 1.62,0.07 1.62,0.11z"/>
  <path class="fil9" d="M384.66 432.66c0,0.16 -23.69,0.29 -52.9,0.29 -29.23,0 -52.92,-0.13 -52.92,-0.29 0,-0.16 23.69,-0.29 52.92,-0.29 29.21,0 52.9,0.13 52.9,0.29z"/>
  <path class="fil9" d="M351.59 442.19c0,0.16 -16.28,0.29 -36.37,0.29 -20.09,0 -36.38,-0.13 -36.38,-0.29 0,-0.16 16.29,-0.3 36.38,-0.3 20.09,0 36.37,0.14 36.37,0.3z"/>
  <path class="fil8" d="M383.47 457.01l0.1 0.11 2.9 2.9 0.01 -8.61 -5.84 -0.01 -0.01 8.45 2.84 -2.84zm3.29 3.71l-3.29 -3.29 -3.13 3.12 0.01 -9.44 6.42 0.01 -0.01 9.6z"/>
  <path class="fil8" d="M296.49 453.21c-1.65,0.01 -2.99,1.37 -2.97,3.03 0.01,1.65 1.37,2.99 3.02,2.97 0.43,0 0.9,-0.15 1.45,-0.45l0.05 -0.03 0.85 0.38 -0.19 -0.84 0.04 -0.04c0.51,-0.56 0.79,-1.29 0.78,-2.04 -0.01,-1.66 -1.37,-2.99 -3.03,-2.98zm2.72 6.29l-1.16 -0.52c-0.56,0.3 -1.06,0.45 -1.51,0.46 -1.77,0.01 -3.23,-1.42 -3.24,-3.2 -0.02,-1.78 1.42,-3.24 3.19,-3.25 1.78,-0.01 3.24,1.42 3.25,3.2 0.01,0.79 -0.28,1.55 -0.8,2.15l0.27 1.16z"/>
  <path class="fil8" d="M303.41 453.7l2.12 1.95 1.13 2.76 1.9 -4.76 -5.15 0.05zm3.26 5.3l-1.33 -3.25 -2.5 -2.27 6.05 -0.05 -2.22 5.57z"/>
  <polygon class="fil8" points="305.59,455.76 305.47,455.58 308.77,453.43 308.89,453.62 "/>
  <path class="fil10" d="M289.69 454.16c-0.17,-0.87 -1.03,-1.54 -1.91,-1.5 -0.87,0.03 -1.67,0.76 -1.78,1.62 -0.13,-0.86 -0.93,-1.58 -1.81,-1.6 -0.88,-0.02 -1.72,0.67 -1.88,1.54 -0.12,0.63 0.1,1.28 0.46,1.82 0.36,0.53 0.84,0.96 1.32,1.39 0.68,0.59 1.3,1.15 1.97,1.75 0.67,-0.61 1.23,-1.18 1.9,-1.78 0.47,-0.44 0.95,-0.87 1.3,-1.41 0.35,-0.54 0.56,-1.2 0.43,-1.83z"/>
  <path class="fil8" d="M393.5 469.07c0,0 -0.02,-0.36 -0.02,-1.05 -0.01,-0.7 -0.02,-1.72 -0.03,-3.06 -0.01,-2.7 -0.02,-6.67 -0.04,-11.82 -0.03,-10.28 -0.06,-25.25 -0.11,-44.02l0.2 0.2c-43.06,0.02 -107.34,0.06 -178.97,0.1l-0.01 0 0.29 -0.3c0,20.84 0,41.05 -0.01,59.95l-0.28 -0.28c51.52,0.05 96.22,0.1 128.06,0.13 15.94,0.04 28.64,0.06 37.39,0.08 4.36,0.02 7.73,0.03 10.03,0.04 1.14,0.01 2,0.01 2.6,0.02 0.59,0 0.9,0.01 0.9,0.01 0,0 -0.29,0.01 -0.86,0.02 -0.59,0 -1.45,0.01 -2.57,0.02 -2.28,0.01 -5.63,0.02 -9.97,0.04 -8.73,0.02 -21.42,0.04 -37.32,0.07 -31.89,0.04 -76.66,0.08 -128.26,0.13l-0.28 0 0 -0.28c0,-18.9 -0.01,-39.11 -0.01,-59.95l0 -0.29 0.3 0c71.63,0.04 135.91,0.08 178.97,0.1l0.19 0 0 0.19c-0.05,18.82 -0.08,33.83 -0.11,44.14 -0.02,5.12 -0.04,9.08 -0.05,11.77 -0.01,1.33 -0.01,2.34 -0.02,3.03 0,0.68 -0.01,1.01 -0.01,1.01z"/>
  <polygon class="fil1" points="271.54,419.42 271.31,459.05 221.74,458.77 221.96,419.14 "/>
  <path class="fil8" d="M271.54 419.42c-0.01,0.01 -0.09,0.01 -0.25,0.02 -0.18,0 -0.41,0 -0.7,0.01 -0.65,0 -1.55,0.01 -2.71,0.01 -2.38,0.01 -5.82,0.01 -10.16,0.01 -8.72,-0.01 -21.08,-0.04 -35.76,-0.07l0.27 -0.26c-0.06,11.8 -0.13,25.32 -0.2,39.63 0.06,0.07 -0.54,-0.55 -0.28,-0.29l0.09 0 0.11 0 0.22 0.01 0.42 0 0.86 0 1.71 0.01c1.14,0.01 2.27,0.02 3.4,0.02 2.25,0.02 4.47,0.03 6.68,0.04 4.4,0.03 8.69,0.06 12.86,0.09 8.32,0.06 16.13,0.11 23.22,0.16l-0.25 0.24c0.12,-11.9 0.22,-21.77 0.29,-28.7 0.05,-3.45 0.08,-6.16 0.11,-8.05 0.02,-0.91 0.03,-1.62 0.04,-2.13 0.01,-0.48 0.03,-0.75 0.03,-0.75 0,0 0.02,0.23 0.02,0.7 0,0.5 0.01,1.19 0.02,2.08 0,1.88 0.01,4.57 0.01,8 -0.01,6.97 -0.02,16.89 -0.03,28.86l0 0.24 -0.25 0c-7.08,-0.03 -14.89,-0.06 -23.22,-0.1 -4.16,-0.02 -8.46,-0.04 -12.86,-0.06 -2.2,-0.01 -4.43,-0.02 -6.68,-0.04 -1.12,0 -2.25,-0.01 -3.39,-0.01l-1.71 -0.01 -0.86 -0.01 -0.43 0 -0.21 0 -0.11 0 -0.05 0 -0.04 0c0.25,0.26 -0.37,-0.36 -0.3,-0.3 0.09,-14.31 0.18,-27.83 0.25,-39.63l0 -0.26 0.27 0c14.74,0.14 27.16,0.25 35.92,0.34 4.32,0.05 7.73,0.09 10.1,0.12 1.14,0.02 2.03,0.04 2.66,0.05 0.28,0 0.5,0.01 0.67,0.02 0.15,0 0.22,0.01 0.22,0.01z"/>
  <polygon class="fil11" points="223.46,456.29 269.55,456.55 269.75,421.91 223.66,421.65 "/>
  <polygon class="fil3" points="223.46,456.29 239.68,434.85 249.58,448.38 256.38,441.21 269.55,456.55 "/>
  <path class="fil3" d="M253.9 432.29c-0.01,2 -1.64,3.62 -3.65,3.61 -2,-0.01 -3.62,-1.65 -3.61,-3.65 0.02,-2.01 1.65,-3.62 3.66,-3.61 2,0.01 3.61,1.64 3.6,3.65z"/>
  <path class="fil8" d="M305.56 162.31c0,0.02 -0.18,0.04 -0.53,0.06 -0.41,0.02 -0.91,0.03 -1.52,0.05 -1.41,0.03 -3.29,0.06 -5.58,0.1 -4.71,0.05 -11.23,0.08 -18.42,0.08 -7.2,0 -13.71,-0.03 -18.42,-0.08 -2.29,-0.04 -4.17,-0.07 -5.59,-0.1 -0.6,-0.02 -1.1,-0.03 -1.51,-0.05 -0.35,-0.02 -0.53,-0.04 -0.53,-0.06 0,-0.02 0.18,-0.04 0.53,-0.06 0.41,-0.01 0.91,-0.03 1.51,-0.05 1.42,-0.02 3.3,-0.06 5.59,-0.09 4.71,-0.06 11.22,-0.09 18.42,-0.09 7.19,0 13.71,0.03 18.42,0.09 2.29,0.03 4.17,0.07 5.58,0.09 0.61,0.02 1.11,0.04 1.52,0.05 0.35,0.02 0.53,0.04 0.53,0.06z"/>
  <path class="fil8" d="M373.92 375.9l0.15 0.15 4.3 4.32 0.02 -12.8 -8.67 -0.02 -0.02 12.56 4.22 -4.21zm4.88 5.51l-4.89 -4.9 -4.65 4.64 0.02 -14.03 9.54 0.02 -0.02 14.27z"/>
  <path class="fil8" d="M249.4 367.56c-3.26,0.03 -5.89,2.7 -5.86,5.96 0.02,3.26 2.7,5.89 5.96,5.86 0.83,-0.01 1.76,-0.3 2.84,-0.9l0.1 -0.05 1.68 0.75 -0.38 -1.65 0.08 -0.09c1,-1.1 1.55,-2.53 1.54,-4.02 -0.03,-3.25 -2.7,-5.88 -5.96,-5.86zm5.34 12.37l-2.28 -1.02c-1.11,0.6 -2.07,0.9 -2.96,0.9 -3.5,0.03 -6.37,-2.79 -6.4,-6.29 -0.02,-3.49 2.8,-6.36 6.3,-6.39 3.5,-0.03 6.36,2.79 6.39,6.29 0.01,1.56 -0.55,3.05 -1.58,4.23l0.53 2.28z"/>
  <path class="fil8" d="M263.01 368.52l4.18 3.83 2.23 5.45 3.74 -9.36 -10.15 0.08zm6.41 10.43l-2.62 -6.39 -4.9 -4.47 11.9 -0.09 -4.38 10.95z"/>
  <polygon class="fil8" points="267.31,372.58 267.07,372.22 273.56,368 273.8,368.36 "/>
  <path class="fil6" d="M236.01 369.43c-0.35,-1.71 -2.03,-3.03 -3.76,-2.96 -1.72,0.07 -3.28,1.5 -3.51,3.2 -0.25,-1.7 -1.83,-3.1 -3.55,-3.14 -1.74,-0.04 -3.4,1.31 -3.71,3.01 -0.23,1.24 0.2,2.54 0.9,3.59 0.71,1.05 1.66,1.89 2.61,2.73 1.33,1.17 2.55,2.27 3.88,3.45 1.31,-1.2 2.42,-2.32 3.73,-3.51 0.93,-0.85 1.87,-1.72 2.56,-2.78 0.68,-1.06 1.09,-2.36 0.85,-3.59z"/>
  <path class="fil1" d="M243 162.31c0,4.46 -3.62,8.08 -8.08,8.08 -4.46,0 -8.08,-3.62 -8.08,-8.08 0,-4.46 3.62,-8.07 8.08,-8.07 4.46,0 8.08,3.61 8.08,8.07z"/>
  <path class="fil9" d="M375.75 335.08c0,0.16 -33.86,0.29 -75.63,0.29 -41.77,0 -75.63,-0.13 -75.63,-0.29 0,-0.16 33.86,-0.29 75.63,-0.29 41.77,0 75.63,0.13 75.63,0.29z"/>
  <path class="fil9" d="M375.75 322.48c0,0.17 -33.86,0.3 -75.63,0.3 -41.77,0 -75.63,-0.13 -75.63,-0.3 0,-0.16 33.86,-0.29 75.63,-0.29 41.77,0 75.63,0.13 75.63,0.29z"/>
  <path class="fil9" d="M306.82 347.84c0,0.17 -18.43,0.3 -41.16,0.3 -22.74,0 -41.17,-0.13 -41.17,-0.3 0,-0.16 18.43,-0.29 41.17,-0.29 22.73,0 41.16,0.13 41.16,0.29z"/>
  <path class="fil8" d="M296.66 485.08c0,1.8 -1.45,3.25 -3.22,3.25 -1.78,-0.01 -3.21,-1.48 -3.2,-3.28 0,-1.8 1.45,-3.26 3.22,-3.25 1.78,0.01 3.21,1.48 3.2,3.28z"/>
  <path class="fil8" d="M306.62 485.12c-0.01,1.8 -1.45,3.26 -3.23,3.25 -1.77,-0.01 -3.2,-1.48 -3.2,-3.28 0.01,-1.79 1.46,-3.25 3.23,-3.24 1.78,0.01 3.21,1.47 3.2,3.27z"/>
  <path class="fil8" d="M316.58 485.17c-0.01,1.8 -1.45,3.25 -3.23,3.24 -1.77,0 -3.21,-1.47 -3.2,-3.27 0.01,-1.8 1.45,-3.25 3.23,-3.24 1.77,0 3.21,1.47 3.2,3.27z"/>
  <polygon class="fil11" points="215.61,287.77 394.58,287.72 394.55,178.27 215.58,178.32 "/>
  <polygon class="fil3" points="232.12,287.77 283.4,219.12 315.2,262.05 336.75,239.09 379.01,287.72 "/>
  <path class="fil3" d="M328.67 210.7c0,6.39 -5.17,11.57 -11.56,11.57 -6.39,0 -11.57,-5.17 -11.57,-11.56 0,-6.39 5.17,-11.57 11.56,-11.57 6.39,0 11.57,5.17 11.57,11.56z"/>
  <path class="fil8" d="M394.09 389.47c-0.01,-2.34 -0.11,-101.22 -0.27,-247.59l0.27 0.26c-53.98,0.01 -114.81,0.02 -178.96,0.03l-0.02 0 0.29 -0.29c-0.02,92.59 -0.03,178.28 -0.05,247.59l-0.24 -0.24c108.54,0.14 177.02,0.23 178.98,0.24 -1.96,0 -70.44,0.09 -178.98,0.23l-0.23 0.01 0 -0.24c-0.02,-69.31 -0.04,-155 -0.06,-247.59l0 -0.29 0.31 0c64.15,0.01 124.98,0.02 178.96,0.02l0.26 0 0 0.27c-0.05,73.26 -0.1,135.18 -0.13,178.8 -0.03,21.78 -0.06,38.98 -0.07,50.75 -0.01,5.87 -0.03,10.38 -0.03,13.43 -0.01,1.52 -0.02,2.67 -0.02,3.45 0,0.77 -0.01,1.16 -0.01,1.16z"/>
  <path class="fil12" d="M309.99 420.18l3.96 -13.3c0.69,-2.89 1.61,-6.29 2.84,-10.18 1.11,-3.49 3.96,-7.15 6.55,-9.79 4.05,-4.11 5.97,-4.14 8.68,-6.32 0.25,-0.16 0.53,-0.39 0.76,-0.51 0.56,-0.31 0.98,-0.71 1.32,-1.15 2.34,-2.53 0.1,-6.45 -4.66,-6.08 -3.58,0.29 -9.42,1.31 -18.91,11.1 -0.12,0.15 -0.24,0.27 -0.36,0.43 -4.98,6.47 -9.66,-12.01 -10.5,-18.89 -0.55,-4.47 -5.38,-7.21 -9.75,-5.6l-23.12 10.82c-1.91,-0.68 -4.17,-0.56 -6.75,0.23 -3.4,1.26 -5.29,4.75 -4.4,8.15l9.38 37.44 -27.55 91.64 59.37 0 13.14 -87.99z"/>
  <path class="fil5" d="M355.59 336.01l-18.35 35.96 -9.17 -2.55 -46.13 37.52c-3.92,3.19 -9.67,2.68 -12.97,-1.15l-17.57 -20.41c0,0 35.41,-15.25 41.96,-27.88 6.55,-12.63 -1.02,-15.49 -1.02,-15.49l16.67 -18.94 46.58 12.94z"/>
  <path class="fil6" d="M331.79 262.55c0,0 -26.86,-5.94 -64.66,-42.29 -37.8,-36.35 -55.57,-84.63 -60.19,-84.39 -0.44,0.02 -1.01,-0.04 -1.72,-0.1 -6.86,-0.61 -26.71,-1.21 -61.54,74.54 -38.42,83.59 -23.29,103 -15.64,102.84 7.65,-0.15 59.56,-14.62 91.99,-10.94 32.43,3.69 74.12,20.59 74.12,20.59l37.64 -60.25z"/>
  <path class="fil10" d="M388.86 308.11l-9.17 17.43 -4.1 7.8c-5.63,10.71 -18.66,15.13 -29.64,10.07l-57.58 -20.06 33.53 -76.55 57.53 30.65c11.04,5.89 15.25,19.59 9.43,30.66z"/>
  <path class="fil13 str1" d="M355.45 345.5c-1.49,0 -2.98,-0.15 -4.47,-0.45 -1.7,-0.34 -3.39,-0.88 -5.03,-1.64l-41.97 -14.62 -15.61 -5.44 33.53 -76.55 57.53 30.65c7.67,4.1 12.05,11.96 12.05,20.1 0,3.57 -0.85,7.19 -2.62,10.56l-1.01 1.91 0 0 -7.76 14.77 -0.4 0.75 -4.1 7.8c-4.05,7.71 -11.94,12.16 -20.14,12.16z"/>
  <path class="fil10" d="M146.79 211.83c-20.45,45.28 -28.97,85.63 -19.02,90.13 9.95,4.49 34.6,-28.58 55.05,-73.85 20.44,-45.28 28.96,-85.63 19.01,-90.12 -9.95,-4.5 -34.59,28.56 -55.04,73.84z"/>
  <path class="fil14 str1" d="M129.76 302.36c-0.72,0 -1.38,-0.13 -1.99,-0.4 -2.82,-1.28 -4.16,-5.44 -4.16,-11.78 0,-16.01 8.53,-45.91 23.18,-78.35 19.2,-42.51 42.1,-74.25 53.06,-74.25 0.71,0 1.37,0.13 1.98,0.41 2.82,1.27 4.16,5.43 4.16,11.77 0,16.01 -8.53,45.91 -23.17,78.35 -19.21,42.51 -42.1,74.26 -53.06,74.25z"/>
  <polygon class="fil5" points="393.8,333.29 378.2,328.39 387.85,310.02 399.56,317.3 "/>
  <path class="fil15" d="M381.4 329.39l-3.2 -1 3.2 1 0 0zm7.85 -18.5l-1.4 -0.87 1.4 0.87z"/>
  <polygon class="fil14" points="381.4,329.39 378.2,328.39 387.85,310.02 387.85,310.02 389.25,310.89 "/>
  <path class="fil5" d="M377.1 314.26c-0.23,0.51 -8.02,-2.52 -17.4,-6.76 -9.38,-4.24 -16.8,-8.09 -16.57,-8.59 0.23,-0.5 8.02,2.52 17.4,6.76 9.38,4.24 16.8,8.09 16.57,8.59z"/>
  <path class="fil5" d="M381.9 303.32c-0.25,0.5 -7.29,-2.47 -15.74,-6.63 -8.46,-4.16 -15.11,-7.94 -14.86,-8.43 0.24,-0.5 7.29,2.47 15.74,6.63 8.45,4.16 15.1,7.94 14.86,8.43z"/>
  <path class="fil5" d="M371.05 325.73c-0.09,0.27 -1.94,-0.16 -4.9,-1.07 -1.47,-0.46 -3.23,-1.04 -5.16,-1.71 -1.93,-0.7 -3.92,-1.71 -6.06,-2.68 -8.54,-3.96 -15.06,-7.84 -14.85,-8.3 0.25,-0.54 7.22,2.56 15.68,6.48 2.12,0.96 4.09,2.02 5.95,2.8 1.86,0.75 3.53,1.45 4.93,2.07 2.79,1.24 4.49,2.15 4.41,2.41z"/>
  <path class="fil6" d="M188.48 201.76c0,0 -23.35,-14.47 -36.12,17.07 -12.78,31.54 11.79,36.73 11.79,36.73 10.05,-15.59 18.22,-33.45 24.33,-53.8z"/>
  <path class="fil14" d="M146.43 301.87c0,0 -0.01,0 -0.01,0 -0.1,-0.09 1.17,-1.85 3.57,-4.95 2.5,-3.16 5.99,-7.59 10.29,-13.04 1.97,-2.89 4.13,-6.05 6.44,-9.44 1.16,-1.69 2.37,-3.44 3.6,-5.24 0.63,-0.9 1.25,-1.82 1.89,-2.74 0.61,-0.94 1.15,-1.96 1.74,-2.95 2.32,-4 4.76,-8.19 7.29,-12.54 0.64,-1.08 1.27,-2.18 1.92,-3.28 0.65,-1.1 1.14,-2.3 1.73,-3.46 1.14,-2.33 2.28,-4.7 3.45,-7.1 1.17,-2.4 2.32,-4.77 3.45,-7.1 0.55,-1.18 1.19,-2.31 1.64,-3.5 0.47,-1.19 0.94,-2.37 1.4,-3.54 1.86,-4.67 3.64,-9.18 5.35,-13.47 0.41,-1.08 0.88,-2.13 1.24,-3.19 0.33,-1.08 0.66,-2.14 0.99,-3.18 0.65,-2.09 1.28,-4.12 1.89,-6.08 1.24,-3.92 2.39,-7.57 3.45,-10.91 1.62,-6.73 2.94,-12.21 3.88,-16.12 0.95,-3.78 1.54,-5.87 1.68,-5.87 0,0 0,0 0,0 0.14,0.02 -0.2,2.17 -0.91,6.03 -0.74,3.85 -1.79,9.45 -3.28,16.32 -0.99,3.38 -2.07,7.08 -3.23,11.04 -0.58,1.98 -1.19,4.03 -1.81,6.14 -0.31,1.06 -0.63,2.13 -0.95,3.22 -0.35,1.08 -0.81,2.13 -1.21,3.22 -1.69,4.34 -3.45,8.89 -5.28,13.61 -0.46,1.18 -0.92,2.37 -1.39,3.57 -0.45,1.21 -1.09,2.34 -1.64,3.53 -1.14,2.35 -2.3,4.74 -3.47,7.15 -1.17,2.42 -2.34,4.8 -3.48,7.16 -0.6,1.16 -1.09,2.36 -1.76,3.47 -0.65,1.11 -1.3,2.21 -1.94,3.3 -2.58,4.35 -5.07,8.55 -7.44,12.56 -0.61,0.99 -1.16,2 -1.79,2.94 -0.66,0.93 -1.3,1.84 -1.94,2.75 -1.28,1.79 -2.52,3.54 -3.72,5.23 -2.4,3.36 -4.64,6.5 -6.69,9.37 -4.47,5.41 -8.21,9.67 -10.78,12.64 -2.52,2.87 -3.99,4.45 -4.17,4.45z"/>
  <path class="fil16" d="M291.97 359.45c0.93,-1.26 1.61,-2.4 2.1,-3.4 -0.21,0.47 -0.45,0.95 -0.71,1.45 -0.33,0.64 -0.73,1.28 -1.2,1.93 -0.07,0.01 -0.13,0.01 -0.19,0.02zm2.93 -5.37c0.67,-1.97 0.59,-3.08 0.88,-3.08 0,0 0,0 0,0 -0.18,0.93 -0.47,1.95 -0.88,3.08z"/>
  <path class="fil17" d="M265.15 378.75c2.47,-1.33 5.6,-3.07 9.49,-5.3 0.02,-0.01 0.03,-0.02 0.05,-0.03 -3.23,1.94 -6.5,3.74 -9.54,5.33zm21.2 -13.39c2.51,-2.17 4.32,-4.16 5.62,-5.91 0.06,-0.01 0.12,-0.01 0.19,-0.02 -1.42,1.96 -3.43,3.96 -5.81,5.93z"/>
  <path class="fil14" d="M275.19 398.65c-3.99,0 -7.86,-2.07 -10.74,-4.89 -3.15,-3.09 -5.32,-7.02 -7.45,-10.89 0,0 2.16,-0.89 8.15,-4.12 3.04,-1.59 6.31,-3.39 9.54,-5.33 5.01,-2.88 8.79,-5.59 11.66,-8.06 2.38,-1.97 4.39,-3.97 5.81,-5.93 0.47,-0.65 0.87,-1.29 1.2,-1.93 0.26,-0.5 0.5,-0.98 0.71,-1.45 0.36,-0.73 0.63,-1.39 0.83,-1.97 0.41,-1.13 0.7,-2.15 0.88,-3.08 0.63,-0.07 1.22,-0.11 1.8,-0.11 2.68,0 4.82,0.75 7.67,1.64 1.24,0.39 2.54,0.94 3.21,2.05 1.15,1.89 -0.18,4.49 -2.15,5.49 -1.23,0.63 -2.6,0.8 -4,0.8 -0.84,0 -1.69,-0.06 -2.52,-0.13 1.83,2.78 3.68,5.61 4.6,8.8 0.93,3.2 0.81,6.86 -1.1,9.58 -1.33,1.89 -3.66,3.12 -5.93,3.12 -0.98,0 -1.96,-0.24 -2.83,-0.75 -0.21,2.63 -0.77,5.37 -2.52,7.35 -1.12,1.27 -2.85,2.07 -4.5,2.07 -0.92,0 -1.83,-0.25 -2.58,-0.82 -0.05,4.41 -4.21,8.06 -8.6,8.5 -0.38,0.04 -0.76,0.06 -1.14,0.06z"/>
  <path class="fil18" d="M307.83 396.56c-0.02,0.11 -1.52,-0.18 -3.95,-0.11 -2.43,0.05 -5.81,0.58 -9.15,2.19 -3.35,1.6 -5.88,3.91 -7.44,5.76 -1.58,1.86 -2.29,3.21 -2.39,3.16 -0.03,-0.02 0.12,-0.37 0.44,-0.98 0.33,-0.61 0.87,-1.46 1.63,-2.44 1.5,-1.95 4.06,-4.38 7.5,-6.03 3.44,-1.65 6.94,-2.12 9.4,-2.07 1.24,0.01 2.24,0.13 2.92,0.26 0.68,0.12 1.05,0.23 1.04,0.26z"/>
  <path class="fil12" d="M258.47 376.86c3.64,3.5 6.12,7.35 9.94,10.87 1.73,1.6 4.42,4.63 6.74,5.03 2.33,0.4 3.82,0.09 4.73,-2.08 0.75,-1.76 -0.59,-4.16 -1.51,-5.61 -2.43,-3.81 -4.75,-6.79 -6.57,-9.75 -0.86,-1.39 0.25,-1.68 0.65,-1.04 1.75,1.82 4.36,3.39 5.93,5.37 2.14,2.7 2.53,6.28 8.15,5.15 0.74,-0.15 1.48,-0.41 2.09,-0.87 2.11,-1.61 2.2,-4.43 1.31,-6.68 -0.7,-1.77 -1.92,-3.27 -3.13,-4.73 2.39,2.7 5,5.54 8.8,5.85 2.21,0.17 4.43,-0.86 5.33,-2.88 1.12,-2.56 -0.49,-5.03 -2.11,-7.02 -2.87,-3.54 -6.07,-6.81 -9.54,-9.75 -1.3,-1.1 -2.95,-1.71 -4.64,-1.72 -1.97,-0.02 -4.43,0.35 -5.65,2.06 -2.2,3.11 -1.52,5.85 -1.52,5.85 0,0 -4.93,-2.5 -8.89,0.12 -3.97,2.61 -4.95,7.11 -4.95,7.11l-5.16 4.72z"/>
  <path class="fil12" d="M284.71 355.91c-1.53,-1.53 -1.88,-4.34 -0.7,-6.67 0.84,-1.64 1.9,-3.24 2.97,-3.6 4.69,-1.58 25.18,1.96 25,6.51 -0.2,4.67 -1.69,6.73 -12.81,5.12 -1.96,-0.28 -5.02,-0.67 -5.02,-0.67l-2.69 4.03 -6.75 -4.72z"/>
  <path class="fil18" d="M288.38 374.96c-0.16,0.1 -1.72,-3.09 -4.91,-5.94 -3.15,-2.89 -6.47,-4.13 -6.38,-4.3 0.02,-0.07 0.88,0.15 2.17,0.76 1.28,0.61 2.98,1.65 4.6,3.11 1.62,1.47 2.82,3.06 3.55,4.28 0.73,1.23 1.03,2.06 0.97,2.09z"/>
  <path class="fil18" d="M291.83 360.98c-0.11,0.1 -1.46,-1.01 -3.3,-2.14 -0.92,-0.56 -1.77,-1.04 -2.41,-1.32 -0.63,-0.3 -1.05,-0.38 -1.05,-0.47 -0.01,-0.07 0.48,-0.13 1.19,0.08 0.71,0.2 1.63,0.64 2.57,1.22 1.89,1.15 3.13,2.51 3,2.63z"/>
  <path class="fil18" d="M295.27 356.75c-0.02,0.13 -1.8,0.18 -3.95,-0.44 -1.07,-0.33 -1.97,-0.84 -2.53,-1.32 -0.56,-0.48 -0.79,-0.88 -0.74,-0.93 0.11,-0.1 1.38,1.11 3.44,1.69 2.03,0.59 3.81,0.81 3.78,1z"/>
  <path class="fil18" d="M275.35 380.59c-0.07,0.04 -0.79,-0.88 -1.87,-2.43 -1.1,-1.52 -2.5,-3.78 -4.78,-5.44 -2.28,-1.66 -4.97,-2.06 -6.78,-1.79 -1.84,0.25 -2.79,1.01 -2.85,0.9 -0.02,-0.02 0.19,-0.23 0.65,-0.51 0.46,-0.29 1.19,-0.61 2.14,-0.8 1.88,-0.39 4.75,-0.04 7.18,1.73 2.41,1.76 3.77,4.11 4.79,5.68 0.99,1.61 1.59,2.61 1.52,2.66z"/>
  <path class="fil18" d="M291.03 425.91c0.01,0.16 -3.74,0.7 -8.38,1.2 -4.64,0.51 -8.42,0.79 -8.44,0.63 -0.01,-0.16 3.74,-0.7 8.38,-1.21 4.64,-0.5 8.42,-0.78 8.44,-0.62z"/>
  <polygon class="fil6" points="467.32,53.73 468.58,56.04 470.9,57.3 468.58,58.56 467.32,60.87 466.06,58.56 463.75,57.3 466.06,56.04 "/>
  <polygon class="fil6" points="493.74,110.99 495,113.3 497.31,114.56 495,115.83 493.74,118.14 492.47,115.83 490.16,114.56 492.47,113.3 "/>
  <polygon class="fil6" points="70.35,263.77 71.61,266.08 73.92,267.34 71.61,268.61 70.35,270.92 69.08,268.61 66.77,267.34 69.08,266.08 "/>
  <polygon class="fil6" points="432.66,67.96 435.58,73.29 440.91,76.21 435.58,79.13 432.66,84.46 429.75,79.13 424.41,76.21 429.75,73.29 "/>
  <polygon class="fil6" points="94.02,227.47 96.93,232.79 102.26,235.7 96.93,238.62 94.02,243.94 91.11,238.62 85.79,235.7 91.11,232.79 "/>
  <polygon class="fil6" points="500.92,354.45 503.83,359.77 509.16,362.69 503.83,365.6 500.92,370.92 498.01,365.6 492.69,362.69 498.01,359.77 "/>
  <polygon class="fil6" points="183.71,558.7 186.63,564.04 191.96,566.95 186.63,569.87 183.71,575.21 180.79,569.87 175.46,566.95 180.79,564.04 "/>
  <polygon class="fil6" points="396.49,544.23 399.05,548.91 403.73,551.46 399.05,554.03 396.49,558.7 393.93,554.03 389.25,551.46 393.93,548.91 "/>
 </g>
</svg>
