<?xml version="1.0" encoding="UTF-8"?>
<!DOCTYPE svg PUBLIC "-//W3C//DTD SVG 1.0//EN" "http://www.w3.org/TR/2001/REC-SVG-20010904/DTD/svg10.dtd">
<!-- Creator: CorelDRAW 2021 (64-Bit) -->
<svg xmlns="http://www.w3.org/2000/svg" xml:space="preserve" width="323px" height="554px" version="1.0" style="shape-rendering:geometricPrecision; text-rendering:geometricPrecision; image-rendering:optimizeQuality; fill-rule:evenodd; clip-rule:evenodd"
viewBox="0 0 152.03 261.1"
 xmlns:xlink="http://www.w3.org/1999/xlink"
 xmlns:xodm="http://www.corel.com/coreldraw/odm/2003">
 <defs>
  <style type="text/css">
   <![CDATA[
    .fil2 {fill:#FEFEFE;fill-rule:nonzero}
    .fil0 {fill:#FFCF4F;fill-rule:nonzero}
    .fil1 {fill:#FAF178;fill-rule:nonzero}
    .fil3 {fill:#DDE0E3;fill-rule:nonzero}
    .fil11 {fill:#BFE7FA;fill-rule:nonzero}
    .fil6 {fill:#5B7088;fill-rule:nonzero}
    .fil9 {fill:#7066FF;fill-rule:nonzero}
    .fil13 {fill:#7D52FF;fill-rule:nonzero}
    .fil5 {fill:#7D52FF;fill-rule:nonzero}
    .fil7 {fill:#845CFF;fill-rule:nonzero}
    .fil12 {fill:#968FFF;fill-rule:nonzero}
    .fil4 {fill:#968FFF;fill-rule:nonzero}
    .fil8 {fill:#A39CFF;fill-rule:nonzero}
    .fil10 {fill:#B2F5FC;fill-rule:nonzero}
   ]]>
  </style>
 </defs>
 <g id="Capa_x0020_1">
  <metadata id="CorelCorpID_0Corel-Layer"/>
  <path class="fil0" d="M65.87 206.88c0,0 -8.1,10.76 -11.2,21.55 -3.09,10.79 -2.88,13.62 -2.88,13.62 0,0 3.76,-5.33 8.01,-7.62 0,0 -1.15,12.51 1.36,18.53 0,0 3.18,-7.13 4.5,-9.64 0,0 1.02,10.74 8.92,17.78l0.04 -1.21 -0.02 1.21c8.5,-6.32 10.45,-16.92 10.45,-16.92 1.09,2.61 3.64,9.99 3.64,9.99 3.03,-5.77 2.98,-18.33 2.98,-18.33 4.03,2.64 7.32,8.29 7.32,8.29 0,0 0.45,-2.81 -1.69,-13.82 -2.13,-11.02 -10.58,-24.73 -10.58,-24.73l-20.85 1.3z"/>
  <path class="fil1" d="M69.25 207.51c0,0 -5.13,6.81 -7.05,13.67 -1.91,6.86 -1.76,8.67 -1.76,8.67 0,0 2.38,-3.38 5.11,-4.81 0,0 -0.66,7.98 1,11.83 0,0 2,-4.52 2.83,-6.11 0,0 0.73,6.85 5.86,11.4l0.02 -0.77 0 0.77c5.41,-3.97 6.6,-10.72 6.6,-10.72 0.72,1.67 2.41,6.4 2.41,6.4 1.91,-3.67 1.79,-11.68 1.79,-11.68 2.61,1.72 4.76,5.34 4.76,5.34 0,0 0.28,-1.78 -1.18,-8.83 -1.45,-7.04 -6.98,-15.84 -6.98,-15.84l-13.41 0.68z"/>
  <polygon class="fil2" points="54.42,189 62.56,207.92 76.57,207.77 76.35,187.75 "/>
  <polygon class="fil2" points="98.29,188.51 90.58,207.61 76.57,207.77 76.35,187.75 "/>
  <polygon class="fil3" points="90.58,207.61 83.18,207.69 76.57,207.77 81.31,196.81 95,196.66 "/>
  <path class="fil4" d="M33.16 120.01c-10.45,10.09 -33.77,30.17 -29.71,56.1 1.89,12.11 8.99,34.15 14.11,37.03 5.12,2.88 6.35,-27.28 10.38,-33.98 4.04,-6.69 17.44,-16.24 17.44,-16.24l-12.22 -42.91z"/>
  <path class="fil5" d="M12.65 186.02c-0.11,0.16 -0.23,0.3 -0.37,0.42 -0.8,0.7 -1.56,0.21 -2,-0.75 -1.2,-2.65 -1.95,-5.67 -2.14,-8.68 -0.11,-1.65 0,-3.81 0.92,-5.08 0.03,-0.03 0.05,-0.06 0.07,-0.09 1.4,-1.79 2.84,0.29 3.53,1.91 1.12,2.63 1.41,6.02 1.05,8.87 -0.14,1.13 -0.41,2.52 -1.06,3.4z"/>
  <path class="fil5" d="M13.82 193.04c-0.05,0.07 -0.11,0.13 -0.17,0.18 -0.27,0.21 -0.54,0.09 -0.7,-0.16 -0.43,-0.7 -0.72,-1.51 -0.81,-2.33 -0.04,-0.43 -0.03,-0.99 0.25,-1.36 0.02,-0.03 0.04,-0.06 0.06,-0.08 0.47,-0.53 0.99,0.01 1.24,0.43 0.41,0.7 0.53,1.62 0.43,2.41 -0.04,0.3 -0.12,0.65 -0.3,0.91z"/>
  <path class="fil4" d="M115.17 119.1c10.68,9.86 34.43,29.42 30.95,55.43 -1.63,12.15 -8.23,34.34 -13.29,37.33 -5.05,2.99 -6.95,-27.12 -11.13,-33.73 -4.19,-6.61 -17.79,-15.85 -17.79,-15.85l11.26 -43.18z"/>
  <path class="fil6" d="M40.39 166.72c-3.27,2.62 -7.46,6.21 -10.32,9.57 0,-0.01 0.01,-0.01 0,-0.01 2.86,-3.35 7.05,-6.94 10.32,-9.56l0 0z"/>
  <path class="fil5" d="M40.39 166.72c-3.27,2.62 -7.46,6.21 -10.32,9.56 0.26,-4.28 0.26,-8.57 -0.26,-12.87 -1.31,-10.89 -6.21,-20.88 -8.68,-31.48 2.56,-2.78 5.11,-5.3 7.42,-7.52 2.64,15.95 7.22,30.49 11.84,42.31z"/>
  <path class="fil6" d="M119.65 175.46c-2.33,-2.65 -5.55,-5.44 -8.47,-7.78 0,0 0,0 0,0 2.92,2.34 6.14,5.13 8.47,7.78 0,0 0,0 0,0z"/>
  <path class="fil5" d="M119.65 175.46c-2.33,-2.65 -5.55,-5.44 -8.47,-7.78 4.36,-11.64 8.72,-26.08 11.2,-41.95 1.13,1.07 2.3,2.2 3.48,3.39 -4.09,10.48 -5.57,22.53 -6.15,33.63 -0.21,4.24 -0.18,8.47 -0.06,12.71z"/>
  <path class="fil2" d="M74.27 0c-14.02,0.16 -36.85,40.09 -43.14,61.98 -18.98,65.96 23.83,135.12 23.83,135.12l21.49 -0.24 21.48 -0.24c0,0 41.06,-69.74 20.99,-135.12 -6.73,-21.92 -31.09,-61.65 -44.65,-61.5z"/>
  <path class="fil7" d="M104.76 135.06c-9.02,-0.7 -15.31,8.27 -24.11,7.38 -3.69,-0.38 -6.71,-2.69 -9.5,-4.93 -4.77,-3.8 -9.51,-5.54 -15.65,-4.02 -5.36,1.33 -10.44,3.84 -15.07,6.8 -2.4,1.53 -4.96,2.75 -7.5,4.01 8.48,30.9 22.03,52.8 22.03,52.8l42.97 -0.48c0,0 13.53,-22.99 21.26,-54.94 -4.22,-3.53 -9.06,-6.19 -14.43,-6.62z"/>
  <path class="fil8" d="M55.84 157.94c3.62,0.41 6.73,2.36 9.93,3.94 5.03,2.47 10.42,3.52 15.95,2.26 7.97,-1.83 15.38,-8.22 23.91,-6.2 2.94,0.7 5.43,2.21 7.55,4.18 2.15,-6.23 4.24,-13.09 6.01,-20.44 -4.22,-3.53 -9.06,-6.19 -14.43,-6.62 -9.02,-0.7 -15.31,8.27 -24.11,7.38 -3.69,-0.38 -6.71,-2.69 -9.5,-4.93 -4.77,-3.8 -9.51,-5.54 -15.65,-4.02 -5.36,1.33 -10.44,3.84 -15.07,6.8 -2.4,1.53 -4.96,2.75 -7.5,4.01 1.92,6.97 4.09,13.48 6.3,19.39 5.07,-3.58 10.98,-6.39 16.61,-5.75z"/>
  <path class="fil4" d="M83.36 36.11c9.6,1.3 18.93,3.85 27.99,7.18 -10.31,-20.6 -26.8,-43.4 -37.08,-43.29 -9.36,0.1 -22.64,17.93 -32.31,36.28 13.29,-3.53 28,-1.98 41.4,-0.17z"/>
  <path class="fil9" d="M57.5 30.04c10.39,-0.73 20.97,-0.48 31.27,1.06 6.18,0.92 12.23,2.29 18.2,3.98 -10.17,-18 -23.78,-35.18 -32.7,-35.08 -8.63,0.1 -20.6,15.27 -30,32.03 4.32,-1.1 8.79,-1.68 13.23,-1.99z"/>
  <path class="fil10" d="M94.86 81.96c0.12,10.87 -8.6,19.78 -19.46,19.9 -10.87,0.12 -19.78,-8.6 -19.9,-19.47 -0.12,-10.87 8.59,-19.78 19.46,-19.9 10.87,-0.12 19.78,8.6 19.9,19.47z"/>
  <path class="fil11" d="M89.86 69.07c-0.75,-0.84 -1.57,-1.61 -2.45,-2.31 0.25,-0.28 0.51,-0.56 0.76,-0.84 0.91,0.54 1.77,1.16 2.58,1.85 -0.31,0.42 -0.6,0.86 -0.89,1.3z"/>
  <path class="fil11" d="M85 64.38c-0.15,0.16 -0.3,0.32 -0.44,0.49 -1.98,-1.08 -4.17,-1.82 -6.48,-2.17 0.07,-0.12 0.14,-0.24 0.21,-0.36 2.35,0.27 4.62,0.98 6.71,2.04z"/>
  <path class="fil3" d="M94.22 87.17c0,0 0,-0.01 0.01,-0.02 -0.01,0.01 -0.01,0.02 -0.01,0.02zm0.01 -0.04c0.01,-0.02 0.01,-0.03 0.01,-0.04 0,0.01 0,0.02 -0.01,0.04zm0.01 -0.05c0.32,-1.25 0.53,-2.55 0.59,-3.88 -0.06,1.33 -0.26,2.63 -0.59,3.88z"/>
  <path class="fil12" d="M75 66.5c-8.64,0.09 -15.6,7.2 -15.5,15.85 0.1,8.64 7.21,15.6 15.85,15.5 8.65,-0.09 15.6,-7.2 15.51,-15.85 -0.1,-8.64 -7.21,-15.6 -15.86,-15.5zm0.44 39.36c-13.06,0.14 -23.8,-10.36 -23.95,-23.42 -0.14,-13.06 10.37,-23.8 23.43,-23.95 13.06,-0.14 23.8,10.36 23.94,23.42 0.15,13.06 -10.36,23.8 -23.42,23.95z"/>
  <path class="fil3" d="M97.93 196.62c0,0 0,0 0,0 0,0 0,0 0,0zm0 0l0 0 -21.7 0.24 0 0 21.7 -0.24zm0 0c0,0 0,0 0,0 0,0 0,0 0,0zm0 0c0,0 0,0 0,0 0,0 0,0 0,0zm0 0c0,0 0,0 0.01,0 -0.01,0 -0.01,0 -0.01,0zm0.01 0c0,-0.01 0,-0.01 0,-0.01 0,0 0,0 0,0.01zm0 -0.01c0.41,-0.71 13.64,-23.48 21.25,-54.93l0 0c-0.69,-0.58 -1.4,-1.13 -2.12,-1.66 -3.7,-2.69 -7.82,-4.6 -12.31,-4.96 -2.5,-0.19 -4.79,0.36 -6.97,1.23 1.32,-5.13 2.42,-10.33 3.24,-15.65 2.35,-15.13 2.93,-30.54 1.92,-45.82 -0.78,-11.9 -2.06,-24.38 -5.62,-35.94 4.74,1.23 9.41,2.71 14.02,4.41 -1.36,-2.72 -2.83,-5.48 -4.38,-8.21 0,0 0,0 0,0 -6.06,-10.73 -13.35,-21.17 -20.13,-27.83l0 0c-0.01,-0.01 -0.03,-0.02 -0.04,-0.04 0,0 0,0 0,0 -0.01,-0.01 -0.03,-0.02 -0.04,-0.03 0,0 0,0 0,-0.01 -0.01,-0.01 -0.02,-0.01 -0.03,-0.02 0,-0.01 -0.01,-0.01 -0.01,-0.02 -0.01,-0.01 -0.02,-0.02 -0.03,-0.03 -0.01,0 -0.02,-0.01 -0.02,-0.02 -0.01,0 -0.01,-0.01 -0.02,-0.01 -0.01,-0.01 -0.02,-0.02 -0.03,-0.03 0,0 0,0 0,0 -0.01,-0.01 -0.02,-0.02 -0.03,-0.04l0 0c-1.1,-1.05 -2.17,-2.01 -3.23,-2.86 13.41,10.73 30.16,39.77 35.56,57.36 6.71,21.84 6.59,44.18 3.46,64.23 -2.48,15.87 -6.84,30.31 -11.2,41.95 0,0 0,0 0,0 -6.48,17.3 -12.95,28.44 -13.24,28.93zm-14.58 -192.47c-0.02,-0.01 -0.03,-0.02 -0.04,-0.03 0.01,0.01 0.02,0.02 0.04,0.03zm-0.05 -0.03c-0.02,-0.02 -0.04,-0.04 -0.06,-0.06 0.02,0.02 0.04,0.04 0.06,0.06zm-0.06 -0.06c-0.01,0 -0.02,-0.01 -0.03,-0.02 0.01,0.01 0.02,0.02 0.03,0.02zm-0.05 -0.03c-0.01,-0.01 -0.01,-0.01 -0.02,-0.02 0.01,0.01 0.01,0.01 0.02,0.02zm-0.04 -0.04c-0.01,0 -0.02,-0.01 -0.02,-0.01 0,0 0.01,0.01 0.02,0.01zm-0.06 -0.05c-0.01,0 -0.01,0 -0.02,-0.01 0.01,0.01 0.01,0.01 0.02,0.01zm-0.05 -0.03c0,0 -0.01,-0.01 -0.02,-0.01 0.01,0 0.02,0.01 0.02,0.01zm-0.05 -0.04c0,0 -0.01,0 -0.01,-0.01 0,0.01 0.01,0.01 0.01,0.01zm-0.05 -0.04l-0.01 0 0.01 0zm-0.05 -0.04c0,0 0,0 -0.01,0 0,0 0.01,0 0.01,0zm-0.05 -0.03c0,-0.01 0,-0.01 0,-0.01 0,0 0,0 0,0.01zm-0.1 -0.08l0 0 0 0zm-7.8 -3.64l0 0 0 0zm-0.12 -0.01c0,0 0,0 0,0 0,0 0,0 0,0zm-0.12 -0.01c0,0 0,0 0,0 0,0 0,0 0,0zm-0.04 0l0 0 0 0zm-0.08 -0.01c0,0 0,0 0,0.01 0,-0.01 0,-0.01 0,-0.01 0,0 0,0 0,0zm-0.04 0c0,0 0,0 0,0 0,0 0,0 0,0zm-0.08 0c0,0 0,0 -0.01,0 0.01,0 0.01,0 0.01,0zm-0.04 0c0,0 0,0 0,0 0,0 0,0 0,0zm-0.04 0l0 0 0 0zm-0.04 0c0,0 0,0 0,0 0,0 0,0 0,0zm-0.04 0c0,0 0,0 0,0 0,0 0,0 -0.01,0 0.01,0 0.01,0 0.01,0z"/>
  <path class="fil13" d="M97.93 196.62l0 0 -21.7 0.24c0.9,-2.39 1.63,-4.87 2.47,-7.27 2.75,-7.9 6,-15.65 9.08,-23.43 0.66,-1.65 1.3,-3.3 1.93,-4.95 5.14,-2.26 10.29,-4.6 15.92,-3.27 2.94,0.7 5.43,2.21 7.55,4.18 2.15,-6.23 4.24,-13.09 6.01,-20.44 -7.61,31.45 -20.84,54.22 -21.25,54.93l0 0c0,0 0,0 0,0l0 0c0,0 0,0 0,0.01l0 0 0 0 0 0c-0.01,0 -0.01,0 -0.01,0l0 0c0,0 0,0 0,0l0 0c0,0 0,0 0,0l0 0 0 0 0 0c0,0 0,0 0,0l0 0 0 0 0 0c0,0 0,0 0,0l0 0z"/>
  <path class="fil12" d="M113.18 162.12c-2.12,-1.97 -4.61,-3.48 -7.55,-4.18 -5.63,-1.33 -10.78,1.01 -15.92,3.27 3.13,-8.22 5.9,-16.47 8.08,-24.92 2.18,-0.87 4.47,-1.42 6.97,-1.23 4.49,0.36 8.61,2.27 12.31,4.96 0.72,0.53 1.43,1.08 2.12,1.66l0 0c-1.77,7.35 -3.86,14.21 -6.01,20.44z"/>
  <path class="fil2" d="M46.72 136.74c-2.17,1.06 -4.27,2.26 -6.29,3.55 -0.17,0.11 -0.34,0.21 -0.51,0.32 -0.27,-1.41 -0.47,-2.84 -0.6,-4.28 -0.38,-4.21 -0.21,-8.85 1.68,-12.72 0.21,-0.42 0.3,-0.72 0.42,-0.89 0.16,-0.21 0.36,-0.19 0.96,0.1 0.76,0.36 0.72,0.64 1.09,1.28 0.68,1.14 1.05,2.63 1.41,3.91 0.65,2.29 1.06,4.64 1.5,6.98 0.11,0.58 0.22,1.17 0.34,1.75z"/>
  <path class="fil5" d="M60.05 179.78c-0.34,0.47 -0.89,0.8 -1.76,0.86 -1.16,0.09 -2.15,-0.39 -3.01,-1.13 -1.58,-1.83 -2.48,-5.35 -3.05,-6.96 -1.06,-3.05 -2.37,-5.83 -3.71,-8.78 -0.65,-1.41 -1.3,-2.82 -1.94,-4.24 2.14,-0.89 4.34,-1.49 6.52,-1.64 0.66,1.75 1.34,3.5 2.03,5.25 1.61,4.05 3.79,8.08 4.96,12.29 0.39,1.38 0.75,3.27 -0.04,4.35z"/>
  <path class="fil4" d="M53.1 157.89c-2.18,0.15 -4.38,0.75 -6.52,1.64 -2.77,-6.12 -5.41,-12.34 -6.66,-18.92 0.17,-0.11 0.34,-0.21 0.51,-0.32 2.02,-1.29 4.12,-2.49 6.29,-3.55 1.49,7.21 3.78,14.25 6.38,21.15z"/>
  <path class="fil2" d="M119.77 41.19l0.04 0.07c0.37,0.71 3.66,7.1 6.66,16.39 2.99,9.29 5.68,21.48 4.89,33.76 -0.04,0.55 0.38,1.02 0.93,1.06 0.55,0.04 1.03,-0.38 1.06,-0.93 0.84,-13.07 -2.12,-25.86 -5.27,-35.41 -3.16,-9.55 -6.52,-15.84 -6.54,-15.88 -0.26,-0.49 -0.87,-0.67 -1.35,-0.41 -0.49,0.26 -0.68,0.86 -0.42,1.35z"/>
  <path class="fil2" d="M143.09 145.52l0.02 0.03c0.25,0.38 2.48,3.94 4.34,9.01 1.87,5.07 3.34,11.64 2.16,18.01 -0.1,0.55 0.26,1.07 0.8,1.17 0.55,0.1 1.07,-0.26 1.17,-0.81 1.3,-7.13 -0.42,-14.23 -2.44,-19.56 -2.02,-5.34 -4.35,-8.91 -4.37,-8.95 -0.3,-0.46 -0.92,-0.59 -1.39,-0.29 -0.46,0.3 -0.59,0.92 -0.29,1.39z"/>
  <path class="fil2" d="M19.26 121.98c-0.06,0.05 -5.9,3.85 -11.04,10.92 -1.54,2.12 -3.02,4.54 -4.26,7.24 -0.23,0.5 0,1.1 0.5,1.33 0.5,0.23 1.09,0.01 1.32,-0.5 1.18,-2.56 2.59,-4.87 4.06,-6.9 2.46,-3.38 5.1,-5.99 7.12,-7.76 1.01,-0.88 1.86,-1.55 2.46,-1.99 0.3,-0.22 0.54,-0.39 0.7,-0.5 0.08,-0.06 0.14,-0.1 0.17,-0.12l0.05 -0.03 0.01 -0.01c0.46,-0.3 0.59,-0.92 0.29,-1.38 -0.3,-0.47 -0.92,-0.6 -1.38,-0.3z"/>
  <path class="fil2" d="M1.63 145.19l-1.56 4.07c-0.2,0.51 0.06,1.09 0.57,1.29 0.52,0.2 1.1,-0.06 1.3,-0.58l1.56 -4.06c0.2,-0.51 -0.06,-1.09 -0.58,-1.29 -0.51,-0.2 -1.09,0.06 -1.29,0.57z"/>
 </g>
</svg>
