<?xml version="1.0" encoding="UTF-8"?>
<!DOCTYPE svg PUBLIC "-//W3C//DTD SVG 1.0//EN" "http://www.w3.org/TR/2001/REC-SVG-20010904/DTD/svg10.dtd">
<!-- Creator: CorelDRAW 2021 (64-Bit) -->
<svg xmlns="http://www.w3.org/2000/svg" xml:space="preserve" width="603px" height="265px" version="1.0" style="shape-rendering:geometricPrecision; text-rendering:geometricPrecision; image-rendering:optimizeQuality; fill-rule:evenodd; clip-rule:evenodd"
viewBox="0 0 283.28 124.46"
 xmlns:xlink="http://www.w3.org/1999/xlink"
 xmlns:xodm="http://www.corel.com/coreldraw/odm/2003">
 <defs>
  <style type="text/css">
   <![CDATA[
    .fil1 {fill:black;fill-rule:nonzero}
    .fil0 {fill:white;fill-rule:nonzero}
   ]]>
  </style>
    <clipPath id="id0">
     <rect x="158.81" width="124.47" height="124.46"/>
    </clipPath>
 </defs>
 <g id="Capa_x0020_1">
  <metadata id="CorelCorpID_0Corel-Layer"/>
  <g id="_2441316615312">
   <g>
    <path class="fil0" d="M136.81 39.36l-126.18 0c-5.33,0 -9.69,6.2 -9.69,13.78l0 19.88c0,7.58 4.36,13.77 9.69,13.77l111.69 0c-1.41,0.04 -2.36,0.06 -2.36,0.06 4.06,11.55 12.85,12.75 17.28,12.55 0.76,-0.03 1.02,-1.39 0.4,-2.02 -3.42,-3.49 -3.55,-9.22 -3.53,-10.59l2.7 0c5.33,0 9.69,-6.19 9.69,-13.77l0 -19.88c0,-7.58 -4.36,-13.78 -9.69,-13.78z"/>
    <path id="_1" class="fil0" d="M10.63 38.42l126.18 0 0 1.88 -126.18 0 0 0 0 -1.88zm-8.75 14.72l-1.88 0 0 0 0.01 -0.74 0.04 -0.73 0.07 -0.72 0.09 -0.71 0.11 -0.7 0.14 -0.69 0.16 -0.67 0.18 -0.66 0.21 -0.64 0.23 -0.63 0.24 -0.61 0.27 -0.59 0.29 -0.58 0.31 -0.55 0.32 -0.54 0.35 -0.51 0.36 -0.49 0.38 -0.47 0.4 -0.44 0.41 -0.42 0.43 -0.4 0.44 -0.36 0.47 -0.34 0.47 -0.3 0.49 -0.28 0.5 -0.24 0.52 -0.21 0.53 -0.18 0.54 -0.14 0.55 -0.1 0.56 -0.06 0.56 -0.02 0 1.88 -0.43 0.02 -0.42 0.04 -0.42 0.08 -0.41 0.1 -0.41 0.14 -0.4 0.16 -0.4 0.19 -0.39 0.22 -0.38 0.25 -0.37 0.27 -0.37 0.3 -0.36 0.33 -0.34 0.35 -0.34 0.38 -0.32 0.4 -0.31 0.42 -0.3 0.44 -0.29 0.47 -0.27 0.49 -0.25 0.5 -0.24 0.53 -0.22 0.54 -0.2 0.56 -0.19 0.58 -0.16 0.59 -0.15 0.6 -0.12 0.62 -0.1 0.63 -0.08 0.65 -0.06 0.65 -0.04 0.67 -0.01 0.67 0 0zm-1.88 19.88l0 -19.88 1.88 0 0 19.88 0 0 -1.88 0zm10.63 12.84l0 1.87 0 0 -0.56 -0.02 -0.56 -0.06 -0.55 -0.1 -0.54 -0.14 -0.53 -0.17 -0.52 -0.21 -0.5 -0.24 -0.49 -0.28 -0.47 -0.31 -0.47 -0.33 -0.44 -0.37 -0.43 -0.39 -0.41 -0.42 -0.4 -0.44 -0.38 -0.47 -0.36 -0.49 -0.35 -0.52 -0.32 -0.53 -0.31 -0.55 -0.29 -0.58 -0.27 -0.59 -0.24 -0.61 -0.23 -0.63 -0.21 -0.64 -0.18 -0.66 -0.16 -0.67 -0.14 -0.69 -0.11 -0.7 -0.09 -0.71 -0.07 -0.72 -0.04 -0.73 -0.01 -0.74 1.88 0 0.01 0.67 0.04 0.67 0.06 0.65 0.08 0.64 0.1 0.64 0.12 0.61 0.15 0.61 0.16 0.59 0.19 0.58 0.2 0.56 0.22 0.54 0.24 0.52 0.25 0.51 0.27 0.49 0.29 0.46 0.3 0.45 0.31 0.42 0.32 0.4 0.34 0.38 0.34 0.35 0.36 0.32 0.37 0.3 0.37 0.28 0.38 0.24 0.39 0.22 0.4 0.2 0.4 0.16 0.41 0.13 0.41 0.11 0.42 0.07 0.42 0.05 0.43 0.02 0 0zm111.69 1.87l-111.69 0 0 -1.87 111.69 0 0.02 1.87 -0.02 0zm-1.47 -1.19l-1.78 0.63 0.87 -1.25 -0.03 0 0.04 0 0.02 0 0.01 0 0.03 -0.01 0.02 0 0.03 0 0.05 0 0.04 0 0.05 0 0.05 0 0.06 0 0.06 0 0.07 -0.01 0.07 0 0.08 0 0.08 0 0.08 0 0.09 -0.01 0.09 0 0.1 0 0.1 0 0.1 -0.01 0.1 0 0.11 0 0.11 0 0.12 -0.01 0.12 0 0.12 0 0.13 -0.01 0.12 0 0.14 0 0.04 1.87 -0.13 0.01 -0.13 0 -0.12 0 -0.12 0.01 -0.12 0 -0.12 0 -0.11 0 -0.11 0.01 -0.11 0 -0.1 0 -0.1 0 -0.09 0.01 -0.09 0 -0.09 0 -0.09 0 -0.08 0.01 -0.07 0 -0.07 0 -0.07 0 -0.06 0 -0.06 0 -0.05 0.01 -0.05 0 -0.05 0 -0.03 0 -0.04 0 -0.03 0 -0.02 0 -0.03 0 -0.01 0 0.02 0 -0.03 0 0.87 -1.25zm-1.78 0.63l-0.43 -1.22 1.3 -0.03 -0.87 1.25zm18.13 11.3l0.09 1.87 0 0 -0.45 0.02 -0.48 0 -0.5 -0.01 -0.52 -0.02 -0.54 -0.03 -0.56 -0.06 -0.57 -0.07 -0.59 -0.1 -0.6 -0.11 -0.62 -0.14 -0.62 -0.17 -0.64 -0.19 -0.64 -0.23 -0.64 -0.25 -0.65 -0.29 -0.65 -0.33 -0.65 -0.36 -0.64 -0.4 -0.64 -0.43 -0.63 -0.48 -0.63 -0.53 -0.61 -0.57 -0.6 -0.61 -0.59 -0.66 -0.57 -0.71 -0.55 -0.76 -0.53 -0.81 -0.51 -0.86 -0.49 -0.92 -0.46 -0.98 -0.44 -1.03 -0.41 -1.08 1.78 -0.63 0.38 1.02 0.4 0.96 0.43 0.9 0.45 0.84 0.46 0.79 0.49 0.74 0.49 0.68 0.52 0.64 0.52 0.59 0.54 0.55 0.55 0.5 0.55 0.47 0.56 0.42 0.57 0.39 0.57 0.36 0.57 0.31 0.57 0.29 0.58 0.26 0.57 0.22 0.57 0.2 0.56 0.18 0.56 0.15 0.55 0.12 0.55 0.11 0.53 0.08 0.51 0.07 0.51 0.04 0.49 0.04 0.47 0.02 0.45 0 0.43 0 0.4 -0.01 0 0zm-0.23 -0.43l1.35 -1.31 0 0 0.1 0.12 0.1 0.12 0.08 0.12 0.07 0.13 0.06 0.13 0.05 0.13 0.05 0.14 0.03 0.13 0.03 0.13 0.02 0.13 0.01 0.14 0 0.13 0 0.13 -0.01 0.13 -0.01 0.13 -0.02 0.12 -0.03 0.13 -0.04 0.13 -0.04 0.12 -0.05 0.13 -0.06 0.12 -0.07 0.12 -0.07 0.12 -0.09 0.11 -0.11 0.11 -0.11 0.1 -0.12 0.1 -0.15 0.08 -0.15 0.07 -0.16 0.06 -0.17 0.03 -0.17 0.02 -0.09 -1.87 -0.03 0 -0.04 0.01 -0.04 0.01 -0.03 0.01 -0.03 0.02 -0.01 0.02 -0.02 0.01 -0.01 0.01 0 0 0 -0.01 0.01 0 0.01 -0.02 0 -0.01 0.01 -0.03 0.01 -0.02 0 -0.03 0.01 -0.03 0 -0.04 0.01 -0.03 0 -0.04 -0.01 -0.03 0 -0.03 0 -0.04 -0.01 -0.03 -0.01 -0.03 0 -0.02 -0.01 -0.02 -0.01 -0.02 -0.01 -0.01 -0.01 -0.02 0 0 -0.01 -0.01 0 0zm1.35 -1.31l0.01 0.01 -0.01 -0.01 0 0zm-4.21 -10.87l0 1.87 0.94 -0.92 0 0.13 0 0.15 0 0.18 0 0.2 0.01 0.22 0.01 0.24 0.02 0.25 0.02 0.28 0.02 0.28 0.03 0.31 0.04 0.31 0.05 0.33 0.05 0.33 0.06 0.35 0.07 0.35 0.07 0.36 0.09 0.37 0.1 0.37 0.1 0.37 0.12 0.37 0.13 0.38 0.14 0.37 0.15 0.37 0.17 0.37 0.18 0.36 0.19 0.36 0.2 0.35 0.22 0.34 0.23 0.33 0.25 0.33 0.27 0.31 0.28 0.3 -1.35 1.31 -0.34 -0.37 -0.32 -0.38 -0.3 -0.39 -0.28 -0.4 -0.26 -0.4 -0.24 -0.42 -0.23 -0.41 -0.2 -0.42 -0.19 -0.43 -0.18 -0.42 -0.16 -0.43 -0.14 -0.42 -0.14 -0.42 -0.12 -0.42 -0.1 -0.41 -0.1 -0.4 -0.09 -0.4 -0.07 -0.39 -0.07 -0.38 -0.05 -0.37 -0.05 -0.36 -0.04 -0.35 -0.04 -0.33 -0.03 -0.31 -0.02 -0.3 -0.01 -0.28 -0.02 -0.26 -0.01 -0.25 0 -0.22 0 -0.19 0 -0.18 0 -0.15 0.94 -0.92zm-0.94 0.92l0.01 -0.92 0.93 0 -0.94 0.92zm3.64 0.95l-2.7 0 0 -1.87 2.7 0 0 0 0 1.87zm8.75 -14.71l1.88 0 0 0 -0.01 0.74 -0.04 0.73 -0.07 0.72 -0.09 0.71 -0.11 0.7 -0.14 0.69 -0.16 0.67 -0.18 0.66 -0.21 0.64 -0.22 0.63 -0.25 0.61 -0.27 0.59 -0.29 0.58 -0.31 0.55 -0.32 0.53 -0.35 0.52 -0.36 0.49 -0.38 0.47 -0.39 0.44 -0.42 0.42 -0.43 0.39 -0.44 0.37 -0.46 0.33 -0.48 0.31 -0.49 0.28 -0.5 0.24 -0.52 0.21 -0.53 0.17 -0.54 0.14 -0.55 0.1 -0.55 0.06 -0.57 0.02 0 -1.87 0.43 -0.02 0.42 -0.05 0.42 -0.07 0.41 -0.11 0.41 -0.13 0.4 -0.16 0.4 -0.2 0.39 -0.22 0.38 -0.24 0.38 -0.28 0.36 -0.3 0.36 -0.32 0.35 -0.35 0.33 -0.38 0.33 -0.4 0.31 -0.42 0.3 -0.45 0.28 -0.46 0.27 -0.49 0.25 -0.5 0.24 -0.53 0.22 -0.54 0.2 -0.56 0.19 -0.58 0.16 -0.59 0.15 -0.61 0.12 -0.61 0.1 -0.64 0.09 -0.64 0.06 -0.65 0.03 -0.67 0.01 -0.67 0 0zm1.88 -19.88l0 19.88 -1.88 0 0 -19.88 0 0 1.88 0zm-10.63 -12.84l0 -1.88 0 0 0.57 0.02 0.55 0.06 0.55 0.1 0.54 0.14 0.53 0.18 0.52 0.21 0.5 0.24 0.49 0.28 0.48 0.3 0.46 0.34 0.44 0.36 0.43 0.4 0.42 0.42 0.39 0.44 0.38 0.47 0.36 0.49 0.35 0.51 0.33 0.54 0.3 0.55 0.29 0.58 0.27 0.59 0.25 0.61 0.22 0.63 0.21 0.64 0.18 0.66 0.16 0.67 0.14 0.69 0.11 0.7 0.09 0.71 0.07 0.72 0.04 0.73 0.01 0.74 -1.88 0 -0.01 -0.67 -0.03 -0.67 -0.06 -0.65 -0.09 -0.65 -0.1 -0.63 -0.12 -0.62 -0.15 -0.6 -0.16 -0.59 -0.19 -0.58 -0.2 -0.56 -0.22 -0.54 -0.24 -0.53 -0.25 -0.5 -0.27 -0.49 -0.28 -0.47 -0.3 -0.44 -0.31 -0.42 -0.33 -0.4 -0.33 -0.38 -0.35 -0.35 -0.36 -0.33 -0.36 -0.3 -0.38 -0.27 -0.38 -0.25 -0.39 -0.22 -0.4 -0.19 -0.4 -0.16 -0.41 -0.14 -0.41 -0.1 -0.42 -0.08 -0.42 -0.04 -0.43 -0.02 0 0z"/>
   </g>
   <g style="clip-path:url(#id0)">
    <image id="_580b57fcd9996e24bc43c543.png" x="158.81" y="0" width="124.46" height="124.46" xlink:href="whatsapp_Images\whatsapp_ImgID1.png"/>
   </g>
   <path class="fil1" d="M32.65 63.49l2.58 0 0.2 15.96 -2.97 0 0.19 -15.96zm2.88 -4.78c0,0.46 -0.14,0.85 -0.42,1.17 -0.28,0.32 -0.7,0.47 -1.25,0.47 -0.55,0 -0.97,-0.15 -1.25,-0.47 -0.28,-0.32 -0.43,-0.71 -0.43,-1.17 0,-0.46 0.15,-0.85 0.43,-1.16 0.28,-0.3 0.7,-0.45 1.25,-0.45 0.55,0 0.97,0.15 1.25,0.45 0.28,0.31 0.42,0.7 0.42,1.16zm21.84 15.23l-2.95 0 0 -10.27 -11.22 0 0 10.27 -2.94 0 0 -22.26 2.94 0 0 9.58 11.22 0 0 -9.58 2.95 0 0 22.26zm4.02 -8.42c0,-1.62 0.32,-3.08 0.95,-4.37 0.64,-1.3 1.53,-2.3 2.67,-3 1.13,-0.71 2.43,-1.05 3.88,-1.05 2.26,0 4.08,0.77 5.47,2.33 1.39,1.56 2.08,3.64 2.08,6.23l0 0.2c0,1.61 -0.3,3.06 -0.92,4.33 -0.62,1.28 -1.5,2.28 -2.65,2.99 -1.14,0.72 -2.46,1.07 -3.95,1.07 -2.24,0 -4.06,-0.77 -5.44,-2.33 -1.4,-1.56 -2.09,-3.63 -2.09,-6.2l0 -0.2zm2.84 0.33c0,1.83 0.42,3.31 1.28,4.42 0.85,1.11 1.99,1.67 3.41,1.67 1.44,0 2.58,-0.57 3.43,-1.69 0.84,-1.13 1.27,-2.71 1.27,-4.74 0,-1.81 -0.43,-3.28 -1.29,-4.41 -0.86,-1.12 -2.01,-1.69 -3.44,-1.69 -1.39,0 -2.52,0.56 -3.37,1.67 -0.86,1.11 -1.29,2.7 -1.29,4.77zm18.84 8.09l-2.83 0 0 -23.48 2.83 0 0 23.48zm14.74 0c-0.16,-0.32 -0.29,-0.9 -0.4,-1.74 -1.31,1.37 -2.88,2.05 -4.7,2.05 -1.64,0 -2.97,-0.45 -4.02,-1.38 -1.04,-0.92 -1.56,-2.09 -1.56,-3.51 0,-1.72 0.65,-3.06 1.96,-4.01 1.31,-0.95 3.15,-1.43 5.53,-1.43l2.75 0 0 -1.3c0,-0.98 -0.3,-1.77 -0.89,-2.36 -0.59,-0.59 -1.46,-0.88 -2.61,-0.88 -1.01,0 -1.86,0.26 -2.54,0.76 -0.69,0.51 -1.03,1.13 -1.03,1.85l-2.84 0c0,-0.82 0.29,-1.62 0.88,-2.39 0.59,-0.77 1.38,-1.38 2.39,-1.83 1,-0.45 2.1,-0.67 3.31,-0.67 1.9,0 3.39,0.47 4.47,1.43 1.08,0.95 1.65,2.26 1.68,3.93l0 7.61c0,1.52 0.2,2.73 0.59,3.63l0 0.24 -2.97 0zm-4.69 -2.1c0.88,0 1.73,-0.23 2.52,-0.69 0.8,-0.46 1.37,-1.07 1.73,-1.8l0 -3.42 -2.22 0c-3.46,0 -5.19,1.02 -5.19,3.06 0,0.9 0.29,1.6 0.88,2.1 0.59,0.5 1.35,0.75 2.28,0.75zm14.68 -4.23l-2.56 0 -0.2 -15.93 2.97 0 -0.21 15.93zm-2.86 4.88c0,-0.47 0.14,-0.86 0.42,-1.17 0.28,-0.32 0.7,-0.48 1.24,-0.48 0.56,0 0.97,0.16 1.26,0.48 0.28,0.31 0.42,0.7 0.42,1.17 0,0.46 -0.14,0.85 -0.42,1.15 -0.29,0.31 -0.7,0.46 -1.26,0.46 -0.54,0 -0.96,-0.15 -1.24,-0.46 -0.28,-0.3 -0.42,-0.69 -0.42,-1.15z"/>
  </g>
 </g>
</svg>
